<?xml version="1.0" encoding="UTF-8" standalone="no"?>
<!-- Created with Inkscape (http://www.inkscape.org/) -->

<svg
   width="91.246986mm"
   height="91.246986mm"
   viewBox="0 0 91.246986 91.246986"
   version="1.1"
   id="svg1009"
   sodipodi:docname="KOK.svg"
   inkscape:version="1.2.2 (732a01da63, 2022-12-09)"
   xml:space="preserve"
   xmlns:inkscape="http://www.inkscape.org/namespaces/inkscape"
   xmlns:sodipodi="http://sodipodi.sourceforge.net/DTD/sodipodi-0.dtd"
   xmlns="http://www.w3.org/2000/svg"
   xmlns:svg="http://www.w3.org/2000/svg"><sodipodi:namedview
     id="namedview1011"
     pagecolor="#505050"
     bordercolor="#ffffff"
     borderopacity="1"
     inkscape:showpageshadow="0"
     inkscape:pageopacity="0"
     inkscape:pagecheckerboard="1"
     inkscape:deskcolor="#505050"
     inkscape:document-units="mm"
     showgrid="false"
     inkscape:zoom="0.73940798"
     inkscape:cx="141.32928"
     inkscape:cy="279.27748"
     inkscape:window-width="1920"
     inkscape:window-height="991"
     inkscape:window-x="-9"
     inkscape:window-y="-9"
     inkscape:window-maximized="1"
     inkscape:current-layer="layer1" /><defs
     id="defs1006"><clipPath
       clipPathUnits="userSpaceOnUse"
       id="clipPath80534"><g
         id="g80538"
         transform="matrix(2.8346528,0,0,-2.8346528,153.77903,694.22218)"><path
           d="M -54.249688,-52.093794 H 155.74993 V 244.90555 H -54.249688 Z"
           id="path80536"
           style="stroke-width:0.352777" /></g></clipPath></defs><g
     inkscape:label="Layer 1"
     inkscape:groupmode="layer"
     id="layer1"
     transform="translate(-42.403011,-106.2759)"><path
       style="fill:#ffffff;stroke-width:0.414791"
       d="m 84.261633,178.38201 c -2.876601,-0.91757 -5.490292,-2.83482 -6.904456,-5.06474 -2.087375,-3.29145 -2.070423,-3.30954 6.269674,-6.6948 l 4.364485,-1.77155 5.586276,2.34328 c 3.07245,1.2888 5.75184,2.50884 5.95419,2.71119 1.239638,1.23965 -2.97235,6.39203 -6.44748,7.887 -2.798532,1.2039 -6.187006,1.43035 -8.822689,0.58962 z m -30.679867,-3.42626 c -0.118425,-0.1916 0.280348,-1.73618 0.886154,-3.43242 0.605805,-1.69622 0.978405,-3.40471 0.828002,-3.79666 -0.150407,-0.39194 -1.445776,-1.47033 -2.878603,-2.39641 -1.432828,-0.9261 -2.605142,-1.95434 -2.605142,-2.28502 0,-0.33068 1.213264,-1.39414 2.696145,-2.36324 1.807437,-1.18121 2.740477,-2.07335 2.830645,-2.70655 0.07398,-0.51951 -0.375946,-2.2456 -0.999827,-3.83576 -0.623881,-1.59017 -1.018798,-3.00675 -0.877594,-3.14794 0.300219,-0.30024 0.109944,-0.37425 16.364315,6.36571 6.901092,2.86156 12.54744,5.4171 12.54744,5.67894 0,0.38043 -9.661152,4.53765 -27.250344,11.72588 -0.729235,0.29802 -1.42277,0.38509 -1.541191,0.19347 z m 54.153644,-5.5763 c -7.837758,-3.2392 -14.254768,-6.07612 -14.260018,-6.30425 -0.0121,-0.52232 28.217818,-12.338 28.726558,-12.02358 0.20593,0.1273 -0.1653,1.69522 -0.82498,3.48434 -1.43289,3.88621 -1.32965,4.1538 2.50022,6.48031 1.37766,0.83689 2.4394,1.73584 2.3594,1.99768 -0.08,0.26182 -1.3456,1.27101 -2.81248,2.24263 -1.46687,0.97161 -2.79187,2.10401 -2.94444,2.51642 -0.1619,0.43766 0.22003,2.02831 0.91733,3.82054 0.65709,1.68886 1.05841,3.20674 0.8918,3.37303 -0.1666,0.16629 -6.71564,-2.34792 -14.55339,-5.58712 z m -38.210787,-15.8224 c -7.855488,-3.2583 -14.339498,-6.09454 -14.408912,-6.30278 -0.06942,-0.20824 1.368745,-1.05771 3.195907,-1.8877 3.195986,-1.4518 3.321552,-1.56161 3.307338,-2.8922 -0.0082,-0.76071 -0.267409,-2.43976 -0.576183,-3.73121 -0.724037,-3.0283 -0.430131,-3.32221 2.598172,-2.59816 1.291453,0.30876 2.968149,0.56804 3.725992,0.57618 1.325508,0.0141 1.434799,-0.11178 2.874581,-3.31321 0.823177,-1.8304 1.67379,-3.26895 1.890252,-3.19681 0.216461,0.0721 2.793851,5.90951 5.727533,12.97189 6.886933,16.57922 6.617101,15.88466 6.257443,16.10694 -0.17018,0.1052 -6.736636,-2.47465 -14.592123,-5.73294 z m 22.199452,5.6067 c -0.303668,-0.49134 11.498625,-28.74839 12.010985,-28.75669 0.22813,-0.003 0.83495,0.9055 1.34848,2.02041 1.81447,3.93934 1.93579,4.0952 3.2911,4.2281 0.71246,0.0699 2.37256,-0.15426 3.68912,-0.49808 1.31656,-0.3438 2.54771,-0.52993 2.7359,-0.41363 0.50777,0.31381 0.41843,1.61497 -0.30169,4.394 -0.82503,3.18389 -0.40308,3.90199 3.09947,5.27486 2.72002,1.06614 3.27369,1.52191 2.63036,2.16523 -0.21997,0.21997 -6.2607,2.83468 -13.42384,5.81046 -16.073837,6.67756 -14.819246,6.19707 -15.079885,5.77534 z M 81.747257,143.6837 c -3.14566,-7.5855 -5.806681,-14.11845 -5.913378,-14.5177 -0.259149,-0.96967 0.24115,-0.91903 3.395405,0.3437 3.693072,1.47845 4.252462,1.31116 6.350494,-1.89916 0.969102,-1.48289 2.032558,-2.69614 2.36324,-2.69614 0.330678,0 1.358938,1.17231 2.28502,2.60514 0.926081,1.43282 2.004467,2.7282 2.396414,2.8786 0.39194,0.15035 2.11189,-0.2263 3.82211,-0.83709 1.71021,-0.6108 3.24233,-0.9729 3.40469,-0.80465 0.404778,0.41946 -11.342198,28.71912 -11.921091,28.71912 -0.254937,0 -3.037243,-6.20632 -6.182904,-13.79182 z"
       id="path671"
       sodipodi:nodetypes="ssscscsssssssssscsssssccsssssssssssssscscsssscscssssscssssssscssss" /></g></svg>
