<?xml version="1.0" encoding="UTF-8" standalone="no"?>
<!-- Created with Inkscape (http://www.inkscape.org/) -->

<svg
   width="91.246986mm"
   height="91.246986mm"
   viewBox="0 0 91.246986 91.246986"
   version="1.1"
   id="svg1009"
   sodipodi:docname="E.svg"
   inkscape:version="1.2.2 (732a01da63, 2022-12-09)"
   xml:space="preserve"
   xmlns:inkscape="http://www.inkscape.org/namespaces/inkscape"
   xmlns:sodipodi="http://sodipodi.sourceforge.net/DTD/sodipodi-0.dtd"
   xmlns="http://www.w3.org/2000/svg"
   xmlns:svg="http://www.w3.org/2000/svg"><sodipodi:namedview
     id="namedview1011"
     pagecolor="#505050"
     bordercolor="#ffffff"
     borderopacity="1"
     inkscape:showpageshadow="0"
     inkscape:pageopacity="0"
     inkscape:pagecheckerboard="1"
     inkscape:deskcolor="#505050"
     inkscape:document-units="mm"
     showgrid="false"
     inkscape:zoom="0.5228404"
     inkscape:cx="528.84207"
     inkscape:cy="-396.87063"
     inkscape:window-width="1920"
     inkscape:window-height="991"
     inkscape:window-x="-9"
     inkscape:window-y="-9"
     inkscape:window-maximized="1"
     inkscape:current-layer="layer1" /><defs
     id="defs1006"><clipPath
       clipPathUnits="userSpaceOnUse"
       id="clipPath80534"><g
         id="g80538"
         transform="matrix(2.8346528,0,0,-2.8346528,153.77903,694.22218)"><path
           d="M -54.249688,-52.093794 H 155.74993 V 244.90555 H -54.249688 Z"
           id="path80536"
           style="stroke-width:0.352777" /></g></clipPath><clipPath
       clipPathUnits="userSpaceOnUse"
       id="clipPath80534-8"><g
         id="g80538-2"
         transform="matrix(2.8346528,0,0,-2.8346528,153.77903,694.22218)"><path
           d="M -54.249688,-52.093794 H 155.74993 V 244.90555 H -54.249688 Z"
           id="path80536-2"
           style="stroke-width:0.352777" /></g></clipPath><style
       id="style1">      .cls-1 {        clip-path: url(#clippath-4);      }      .cls-1, .cls-2, .cls-3, .cls-4, .cls-5, .cls-6, .cls-7, .cls-8, .cls-9, .cls-10, .cls-11, .cls-12, .cls-13, .cls-14, .cls-15, .cls-16, .cls-17, .cls-18, .cls-19, .cls-20, .cls-21, .cls-22, .cls-23, .cls-24, .cls-25 {        fill: none;      }      .cls-2 {        clip-path: url(#clippath-2);      }      .cls-26 {        fill: #fff;      }      .cls-3 {        clip-path: url(#clippath-6);      }      .cls-4 {        clip-path: url(#clippath-9);      }      .cls-5 {        clip-path: url(#clippath-12);      }      .cls-6 {        clip-path: url(#clippath-13);      }      .cls-7 {        clip-path: url(#clippath-7);      }      .cls-8 {        clip-path: url(#clippath-18);      }      .cls-9 {        clip-path: url(#clippath-10);      }      .cls-10 {        stroke-width: 4.5px;      }      .cls-10, .cls-12 {        stroke: #093d6a;      }      .cls-11 {        clip-path: url(#clippath-5);      }      .cls-27 {        fill: #093d6a;      }      .cls-12 {        stroke-width: 4.5px;      }      .cls-13, .cls-21 {        isolation: isolate;      }      .cls-14 {        clip-path: url(#clippath-16);      }      .cls-15 {        clip-path: url(#clippath-15);      }      .cls-16 {        clip-path: url(#clippath-3);      }      .cls-17 {        clip-path: url(#clippath-11);      }      .cls-18 {        clip-path: url(#clippath-19);      }      .cls-20 {        clip-path: url(#clippath-17);      }      .cls-21 {        opacity: .49;      }      .cls-22 {        clip-path: url(#clippath);      }      .cls-23 {        clip-path: url(#clippath-1);      }      .cls-24 {        clip-path: url(#clippath-8);      }      .cls-25 {        clip-path: url(#clippath-14);      }      .cls-28 {        fill: #ffed00;      }    </style><clipPath
       id="clippath-2"><circle
         class="cls-19"
         cx="209.19"
         cy="209.37"
         r="196.84"
         id="circle2" /></clipPath><clipPath
       id="clippath-3"><rect
         class="cls-19"
         x="12.24"
         y="12.48"
         width="393.84"
         height="393.84"
         id="rect3" /></clipPath><clipPath
       id="clippath-5"><rect
         class="cls-19"
         x="12.35"
         y="12.53"
         width="393.67999"
         height="393.67999"
         id="rect5" /></clipPath><clipPath
       id="clippath-6"><circle
         class="cls-19"
         cx="209.19"
         cy="209.37"
         r="196.84"
         id="circle5" /></clipPath><clipPath
       id="clippath-8"><circle
         class="cls-19"
         cx="209.64999"
         cy="209.37"
         r="188.23"
         id="circle6" /></clipPath><clipPath
       id="clippath-9"><rect
         class="cls-19"
         x="21.360001"
         y="21.120001"
         width="376.56"
         height="376.56"
         id="rect7" /></clipPath><clipPath
       id="clippath-11"><rect
         class="cls-19"
         x="21.43"
         y="21.15"
         width="376.45001"
         height="376.45001"
         id="rect9" /></clipPath><clipPath
       id="clippath-12"><circle
         class="cls-19"
         cx="209.64999"
         cy="209.37"
         r="188.22"
         id="circle9" /></clipPath><clipPath
       id="clippath-13"><rect
         class="cls-19"
         x="20.879999"
         y="21.120001"
         width="376.56"
         height="376.56"
         id="rect10" /></clipPath><clipPath
       id="clippath-14"><rect
         class="cls-19"
         x="20.959999"
         y="21.139999"
         width="376.45001"
         height="376.45001"
         id="rect11" /></clipPath><clipPath
       id="clippath-15"><circle
         class="cls-19"
         cx="209.19"
         cy="209.37"
         r="188.23"
         id="circle11" /></clipPath><clipPath
       id="clippath-16"><rect
         class="cls-19"
         x="20.879999"
         y="21.120001"
         width="376.56"
         height="376.56"
         id="rect12" /></clipPath><clipPath
       id="clippath-17"><rect
         class="cls-19"
         x="20.959999"
         y="21.139999"
         width="376.45001"
         height="376.45001"
         id="rect13" /></clipPath><clipPath
       id="clippath-18"><rect
         class="cls-19"
         x="20.959999"
         y="21.139999"
         width="376.45001"
         height="376.45999"
         id="rect14" /></clipPath><clipPath
       id="clippath-19"><rect
         class="cls-19"
         x="20.959999"
         y="21.139999"
         width="376.45001"
         height="376.45999"
         id="rect15" /></clipPath></defs><g
     inkscape:label="Layer 1"
     inkscape:groupmode="layer"
     id="layer1"
     transform="translate(-42.403011,-106.2759)"><path
       style="fill:#ffffff;stroke-width:0.0440808"
       d="m 67.370743,159.71307 c -1.718429,-0.25448 -2.937961,-0.79417 -3.919059,-1.73432 -0.873031,-0.8366 -1.392696,-1.79441 -1.644561,-3.03121 -0.07252,-0.35605 -0.07873,-0.73812 -0.07873,-4.83874 0,-5.052 -0.02693,-4.68102 0.370175,-5.10552 0.707404,-0.75628 1.970084,-0.59866 2.42027,0.3021 0.177471,0.35509 0.185013,0.54912 0.185013,4.76038 0,3.92743 0.0028,4.07391 0.08881,4.41101 0.112983,0.4436 0.249519,0.72199 0.516389,1.0529 1.041913,1.29196 3.193212,1.67608 4.782536,0.85391 0.505055,-0.26127 1.018196,-0.7712 1.237018,-1.22928 0.331561,-0.69413 0.310291,-0.36848 0.338221,-5.17775 0.0283,-4.87157 0.003,-4.53396 0.37621,-4.94947 0.44243,-0.49209 1.1425,-0.64663 1.76017,-0.38855 0.23841,0.0996 0.57613,0.44155 0.69148,0.70011 l 0.10255,0.22983 0.0364,2.8873 c 0.0474,3.75199 0.023,5.8293 -0.0749,6.39172 -0.20687,1.18933 -0.73662,2.2197 -1.56429,3.04262 -0.87078,0.86578 -1.992388,1.44539 -3.331558,1.72162 -0.333113,0.0687 -0.650828,0.0946 -1.300386,0.10593 -0.472768,0.008 -0.919088,0.006 -0.991822,-0.005 z m 27.528512,-0.19127 c -0.95539,-0.14782 -1.663,-0.37913 -2.5096,-0.82036 -0.67137,-0.34991 -1.23445,-0.76542 -1.78829,-1.31961 -1.09015,-1.09082 -1.71278,-2.3213 -2.01278,-3.97768 -0.11489,-0.63442 -0.13978,-2.18774 -0.0443,-2.76639 0.29332,-1.7779 1.04216,-3.25204 2.21686,-4.364 1.47627,-1.39743 3.50129,-2.19314 5.59279,-2.19761 0.78807,-0.002 1.39064,0.084 2.1816,0.30996 3.174665,0.90724 5.269075,3.34812 5.618095,6.54746 0.17333,1.58888 -0.0936,3.25043 -0.73325,4.5655 -1.07393,2.20766 -3.22075,3.69816 -5.826175,4.04502 -0.6665,0.0887 -2.05138,0.0772 -2.69493,-0.0223 z m 2.54457,-2.83945 c 0.99716,-0.21903 1.82747,-0.67694 2.46162,-1.35755 0.853925,-0.91651 1.297365,-2.09667 1.297365,-3.45277 0,-2.06123 -1.04356,-3.69019 -2.848895,-4.447 -1.87987,-0.78806 -4.03222,-0.42441 -5.43114,0.91759 -0.45106,0.43269 -0.68909,0.75891 -0.95284,1.30579 -0.54764,1.13556 -0.63783,2.5907 -0.23751,3.83257 0.54488,1.69036 1.95467,2.94611 3.61107,3.21651 0.17994,0.0294 0.35692,0.0605 0.39329,0.0692 0.1701,0.0406 1.41914,-0.0211 1.70704,-0.0844 z m 18.856675,2.75579 c -0.394,-0.0519 -0.81025,-0.40869 -1.02568,-0.87927 -0.14224,-0.31068 -0.16135,-0.8025 -0.0432,-1.11061 0.0419,-0.1091 0.69096,-1.39847 1.44248,-2.86525 0.75151,-1.4668 2.13532,-4.17447 3.07512,-6.01705 1.62155,-3.17924 1.72221,-3.36383 1.9732,-3.61848 0.33111,-0.33595 0.64357,-0.46923 1.10622,-0.47189 0.25881,-0.002 0.36147,0.0213 0.59509,0.13155 0.15528,0.0734 0.36167,0.21455 0.45865,0.31379 0.14054,0.14381 0.79367,1.40803 3.2179,6.22867 1.67287,3.32653 3.08569,6.16906 3.1396,6.31671 0.11574,0.31701 0.12476,0.54494 0.0337,0.85146 -0.14355,0.48342 -0.56679,0.89277 -1.0854,1.0498 -0.32745,0.0991 -0.77849,0.0718 -1.04283,-0.0632 -0.34482,-0.17607 -0.48848,-0.38052 -1.02228,-1.45472 l -0.50617,-1.01859 h -3.82329 -3.82331 l -0.54146,1.06878 c -0.50124,0.98933 -0.55753,1.08078 -0.75736,1.23027 -0.3427,0.25636 -0.86753,0.37426 -1.37103,0.30796 z m 8.64573,-5.74778 c -0.0338,-0.0788 -0.50278,-1.10533 -1.04223,-2.28119 -0.53943,-1.17585 -1.01036,-2.20734 -1.04649,-2.29219 l -0.0657,-0.15429 -1.20451,2.40242 c -0.66247,1.32131 -1.20558,2.41727 -1.20691,2.43546 -9.4e-4,0.0182 1.03927,0.033 2.31243,0.033 h 2.31484 z m -48.067025,5.6606 c -0.12837,-0.0457 -0.3069,-0.14191 -0.39673,-0.21368 -0.20102,-0.16063 -0.4323,-0.49472 -0.49249,-0.71142 -0.0296,-0.10681 -0.0451,-2.29826 -0.0453,-6.42461 -2.7e-4,-7.19131 -0.0375,-6.55913 0.41165,-7.00548 0.45258,-0.44982 0.21457,-0.42598 4.06695,-0.40734 3.56417,0.0173 3.4916,0.0127 4.22713,0.26224 1.61833,0.54891 2.81754,2.0302 3.08612,3.81212 0.19794,1.31318 -0.11968,2.66747 -0.85166,3.63136 -0.40783,0.53704 -1.24956,1.21015 -1.67562,1.33993 -0.0584,0.0177 -0.093,0.0555 -0.0806,0.088 0.0119,0.0312 0.63149,0.79809 1.37669,1.70416 0.88086,1.07102 1.39377,1.73189 1.46598,1.88894 0.15859,0.34487 0.18076,0.81782 0.0541,1.15346 -0.13082,0.34665 -0.38682,0.62122 -0.74251,0.79637 -0.25889,0.12749 -0.33669,0.14484 -0.64787,0.14449 -0.46022,-5e-4 -0.66828,-0.0675 -0.9974,-0.32076 -0.23897,-0.18394 -0.45555,-0.47361 -1.88574,-2.52206 l -1.61577,-2.31425 -1.57507,-0.0116 -1.57506,-0.0116 v 1.86797 c 0,1.07926 -0.0189,1.96759 -0.0448,2.10388 -0.0935,0.49301 -0.37607,0.86378 -0.8261,1.08396 -0.32882,0.16088 -0.88613,0.19059 -1.23601,0.0659 z m 6.6502,-7.87955 c 1.1918,-0.3485 1.77293,-1.90435 1.16178,-3.1104 -0.14934,-0.2947 -0.4481,-0.61041 -0.71521,-0.75579 -0.44557,-0.24251 -0.54765,-0.25148 -2.86126,-0.25148 h -2.12866 v 2.09384 2.09385 h 2.15195 c 1.83613,0 2.18711,-0.0103 2.3914,-0.07 z M 51.067975,159.32 c -0.484759,-0.17904 -0.910812,-0.72941 -0.910812,-1.17655 v -0.13128 l 0.155507,0.13654 c 0.389364,0.34187 1.100587,0.5382 1.6352,0.4514 1.014261,-0.16468 1.749142,-0.92434 1.860553,-1.92326 l 0.0295,-0.26449 2.777097,-0.0115 c 1.527399,-0.006 2.909337,0.007 3.070962,0.0289 0.403751,0.0557 0.790306,0.23807 1.010333,0.47677 0.256586,0.27836 0.360807,0.53979 0.382919,0.96053 0.03323,0.63193 -0.224802,1.08357 -0.773341,1.35363 l -0.294742,0.14512 -4.386997,0.008 c -3.692079,0.007 -4.413796,-9.5e-4 -4.556171,-0.0541 z m 55.283585,-0.035 c -0.42373,-0.1786 -0.71558,-0.47861 -0.8718,-0.89615 -0.0899,-0.2402 -0.0903,-0.2823 -0.0789,-6.53201 l 0.0116,-6.29025 0.14462,-0.29373 c 0.17669,-0.35891 0.49126,-0.65565 0.82894,-0.782 0.23494,-0.0879 0.32479,-0.0905 3.09455,-0.0903 3.08316,2e-4 3.28679,0.0124 4.05183,0.24444 0.5174,0.15687 1.25541,0.54218 1.67087,0.87234 1.01465,0.80632 1.62002,1.9087 1.84939,3.36769 0.0887,0.5646 0.0661,1.69553 -0.0439,2.19361 -0.48666,2.20335 -2.07261,3.66824 -4.34502,4.01336 -0.31615,0.048 -0.89071,0.0637 -2.34476,0.0639 l -1.926,2.6e-4 -0.0136,1.57589 -0.0136,1.5759 -0.11466,0.24445 c -0.15214,0.32438 -0.33598,0.52631 -0.62066,0.68174 -0.20018,0.1093 -0.29247,0.13012 -0.63119,0.14242 -0.34001,0.0123 -0.43263,-6.6e-4 -0.64789,-0.0915 z m 6.02391,-7.06169 c 0.84321,-0.21963 1.61526,-1.02224 1.78918,-1.86 0.0308,-0.14843 0.0439,-0.43644 0.0316,-0.69482 -0.017,-0.35816 -0.0471,-0.50774 -0.15946,-0.79396 -0.23731,-0.60444 -0.73766,-1.15512 -1.26556,-1.39287 -0.452,-0.20357 -0.59917,-0.21608 -2.54114,-0.21608 h -1.84214 v 2.51262 2.51261 h 1.86417 c 1.53171,0 1.91039,-0.012 2.12332,-0.0675 z m -61.012469,5.70993 c -0.447324,-0.093 -0.89298,-0.45081 -1.088546,-0.87396 -0.09146,-0.19789 -0.09577,-0.27234 -0.108243,-1.86773 l -0.01302,-1.66163 -1.662081,-0.0135 -1.662076,-0.0135 -0.250828,-0.12318 c -0.150575,-0.0739 -0.339855,-0.22059 -0.473581,-0.36691 -0.669657,-0.73271 -0.439944,-1.90853 0.459927,-2.35418 0.220114,-0.10901 0.22259,-0.10918 1.895477,-0.13119 l 1.675072,-0.022 0.02204,-1.67507 0.02204,-1.67508 0.151369,-0.27919 c 0.167032,-0.30809 0.403425,-0.52661 0.733756,-0.67829 0.326588,-0.14996 0.876368,-0.14261 1.215233,0.0163 0.317057,0.14865 0.587685,0.41928 0.736334,0.73634 l 0.116721,0.24897 0.02204,1.65302 0.02204,1.65304 1.675072,0.022 c 1.672887,0.022 1.675363,0.0222 1.895478,0.13119 0.296165,0.14667 0.577076,0.43663 0.718589,0.74175 0.169377,0.3652 0.165613,0.84688 -0.0096,1.23123 -0.145522,0.31917 -0.450152,0.62755 -0.763676,0.77309 -0.202791,0.0941 -0.265133,0.0978 -1.871859,0.11123 l -1.662076,0.0138 -0.01302,1.66163 c -0.01254,1.59979 -0.01655,1.66937 -0.109058,1.86956 -0.286675,0.62053 -1.02731,1.00649 -1.673559,0.87213 z m 6.376074,-4.4718 c 0,-0.0168 0.04876,-0.0944 0.108446,-0.17259 0.282592,-0.37051 0.450499,-0.98704 0.401478,-1.47416 -0.04335,-0.43043 -0.193953,-0.79596 -0.48267,-1.17124 l -0.131278,-0.17063 0.591998,0.0187 c 0.68228,0.0215 0.872496,0.083 1.204896,0.38947 0.621464,0.57284 0.609824,1.64454 -0.02428,2.23376 -0.05718,0.0531 -0.222957,0.15127 -0.36835,0.21806 -0.22875,0.10506 -0.33413,0.12396 -0.782309,0.14022 -0.284872,0.0103 -0.517949,0.006 -0.517949,-0.0116 z m -3.952459,-6.24111 c -0.244954,-1.55562 -2.080905,-2.31716 -3.382811,-1.40316 l -0.260283,0.18273 0.0251,-0.24315 c 0.01377,-0.13372 0.06485,-0.32108 0.113446,-0.41634 0.120309,-0.23582 0.41001,-0.51666 0.659964,-0.63977 l 0.206956,-0.10195 h 4.187678 c 3.904782,0 4.202901,0.006 4.412908,0.0786 0.433691,0.1514 0.757598,0.52258 0.882921,1.01175 0.09101,0.35525 0.05386,0.68053 -0.117875,1.03277 -0.153485,0.31475 -0.35768,0.51017 -0.701733,0.67154 l -0.244452,0.11466 -2.866334,0.0122 -2.866326,0.0122 z"
       id="path2061" /></g></svg>
