<?xml version="1.0" encoding="UTF-8" standalone="no"?>
<!-- Created with Inkscape (http://www.inkscape.org/) -->

<svg
   width="91.246986mm"
   height="91.246986mm"
   viewBox="0 0 91.246986 91.246986"
   version="1.1"
   id="svg1009"
   sodipodi:docname="NA.svg"
   inkscape:version="1.2.2 (732a01da63, 2022-12-09)"
   xml:space="preserve"
   xmlns:inkscape="http://www.inkscape.org/namespaces/inkscape"
   xmlns:sodipodi="http://sodipodi.sourceforge.net/DTD/sodipodi-0.dtd"
   xmlns="http://www.w3.org/2000/svg"
   xmlns:svg="http://www.w3.org/2000/svg"><sodipodi:namedview
     id="namedview1011"
     pagecolor="#505050"
     bordercolor="#ffffff"
     borderopacity="1"
     inkscape:showpageshadow="0"
     inkscape:pageopacity="0"
     inkscape:pagecheckerboard="1"
     inkscape:deskcolor="#505050"
     inkscape:document-units="mm"
     showgrid="false"
     inkscape:zoom="0.5228404"
     inkscape:cx="500.15263"
     inkscape:cy="-83.199385"
     inkscape:window-width="1920"
     inkscape:window-height="991"
     inkscape:window-x="-9"
     inkscape:window-y="-9"
     inkscape:window-maximized="1"
     inkscape:current-layer="layer1" /><defs
     id="defs1006"><clipPath
       clipPathUnits="userSpaceOnUse"
       id="clipPath80534"><g
         id="g80538"
         transform="matrix(2.8346528,0,0,-2.8346528,153.77903,694.22218)"><path
           d="M -54.249688,-52.093794 H 155.74993 V 244.90555 H -54.249688 Z"
           id="path80536"
           style="stroke-width:0.352777" /></g></clipPath></defs><g
     inkscape:label="Layer 1"
     inkscape:groupmode="layer"
     id="layer1"
     transform="translate(-42.403011,-106.2759)"><path
       style="fill:#ffffff;stroke-width:0.0777913"
       d="m 58.096216,164.46181 -12.543747,-12.54393 12.563262,-12.56308 12.56327,-12.56309 8.34327,8.343 8.34327,8.34299 h 0.447166 0.447164 v -0.46675 -0.46675 h 0.97239 0.972391 v -1.01127 -1.01129 h 0.505643 0.505643 v -0.46675 -0.46675 h 0.972391 0.97239 v -1.01129 -1.01128 h 0.462866 0.462866 l 0.02332,-0.4473 0.02332,-0.4473 0.991838,-0.0218 0.99184,-0.0218 v -1.00896 -1.00897 h 0.466746 0.466743 v -0.46674 -0.46674 h 0.97239 0.97239 v -0.97241 -0.97238 h 0.50565 0.505642 v -0.50566 -0.50563 h 0.97239 0.97239 v -0.97239 -0.97239 h 0.50564 0.50565 v -0.50564 -0.50565 h 0.50563 0.50565 v -0.46675 -0.46675 h 1.47804 1.47804 v 0.46675 0.46675 h 0.50563 0.50564 v 0.50565 0.50564 h 0.50564 0.50565 v 0.46675 0.46675 h 0.46675 0.46675 v 0.50193 0.50193 l 0.48619,0.0232 0.4862,0.0232 0.0231,0.4862 0.0232,0.48621 h 0.46303 0.46304 v 0.97237 0.9724 h 0.97239 0.97239 v 0.46675 0.46674 h 0.50564 0.50565 v 0.97239 0.97239 h 0.97238 0.9724 v 0.50565 0.50564 h 0.50564 0.50565 v 0.97239 0.97239 h 0.97239 0.97239 v 0.50564 0.50565 h 0.50564 0.50564 v 0.9724 0.97238 h 0.97239 0.97239 v 0.50565 0.50564 h 0.50565 0.50565 v 0.97239 0.97239 h 0.97238 0.97239 v 0.46304 0.46303 l 0.4862,0.0232 0.4862,0.0232 0.0218,0.99185 0.0218,0.99183 h 0.97007 0.97005 v 0.50565 0.50563 h 0.50565 0.50564 v 0.46675 0.46674 h 0.46675 0.46675 v 1.51694 1.51693 h -0.50565 -0.50564 v 0.46675 0.46674 h -0.46675 -0.46675 v 0.50564 0.50564 h -0.50564 -0.50565 v 0.50566 0.50563 h -0.46674 -0.46675 v 0.46675 0.46675 h -0.50564 -0.50564 v 0.50565 0.50564 h -0.97239 -0.97239 v 0.97239 0.97239 h -0.50564 -0.50565 v 0.50565 0.50564 h -0.97239 -0.9724 v 0.97239 0.97238 h -0.46674 -0.46674 v 0.50565 0.50564 h -1.01129 -1.01129 v 0.9724 0.97239 h -0.46303 -0.46305 l -0.0232,0.48619 -0.0232,0.48619 -0.95057,0.0219 -0.95056,0.0219 -0.0218,0.95056 -0.0218,0.95056 -0.4862,0.0232 -0.4862,0.0232 v 0.45396 c 0,0.54837 0.003,0.5473 -1.14742,0.54884 l -0.79736,0.002 v 0.97238 0.97241 h -0.50563 -0.50565 v 0.46674 0.46675 h -0.97006 -0.97008 l -0.0218,0.99183 -0.0218,0.99184 -0.48619,0.0232 -0.4862,0.0232 v 0.46304 0.46304 h -0.50564 -0.50563 v 0.50564 0.50564 h -1.47804 -1.47804 v -0.50564 -0.50564 h -0.46674 -0.46675 v -0.46675 -0.46675 h -0.50565 -0.50564 v -0.50565 -0.50563 h -0.50565 -0.50563 v -0.50565 -0.50564 h -0.46675 -0.46674 v -0.46675 -0.46675 h -0.505652 -0.50564 v -0.97239 -0.97239 h -0.97239 -0.9724 v -0.50563 -0.50566 h -0.505637 -0.505642 v -0.97238 -0.9724 h -0.972308 -0.972393 v -0.50564 -0.50564 h -0.505642 -0.505643 v -0.97239 -0.9724 h -0.972391 -0.972391 v -0.46675 -0.46674 h -0.466747 -0.466747 v -1.01129 -1.01129 H 89.27116 88.259873 v -0.46675 -0.46674 h -0.408539 -0.40854 l -8.362288,8.36257 c -4.599259,4.5994 -8.379895,8.36255 -8.401412,8.36255 -0.02151,0 -5.683804,-5.64476 -12.58287,-12.54393 z m 47.822274,8.96553 v -0.46675 h 0.50564 0.50564 v -0.46675 -0.46674 h -0.50564 -0.50564 v -0.50564 -0.50566 h -0.50564 -0.50565 v -0.46674 -0.46674 h -0.46675 -0.46674 v -0.54454 -0.54454 h 0.46674 0.46675 v -0.46675 -0.46675 h 0.54454 0.54454 v 0.46304 0.46304 l 0.48619,0.0232 0.4862,0.0232 0.0232,0.4862 0.0231,0.48619 h 0.46303 0.46304 v 0.50566 0.50563 h 0.46675 0.46675 v -0.50563 -0.50566 h 0.50564 0.50565 v -0.46674 -0.46675 h -0.50565 -0.50564 v -0.50565 -0.50564 h -0.46675 -0.46675 v -0.46673 -0.46675 h -0.50564 -0.50564 v -0.54455 -0.54454 h 0.50564 0.50564 v -0.46675 -0.46674 h 0.50564 0.50565 v 0.46303 0.46304 l 0.4862,0.0232 0.48619,0.0232 0.0232,0.4862 0.0231,0.4862 h 0.46303 0.46303 v 0.50564 0.50565 h 0.46675 0.46674 v -0.50565 -0.50564 h 0.46675 0.46676 v -0.46674 -0.46675 h -0.46676 -0.46675 v -0.50565 -0.50564 h -0.50564 -0.50563 v -0.46304 -0.46303 l -0.4862,-0.0232 -0.4862,-0.0232 -0.0231,-0.48619 -0.0232,-0.4862 h -0.46304 -0.46303 v -0.50563 -0.50566 h -0.50565 -0.50564 v -0.46674 -0.46675 h -0.50565 -0.50564 v -0.50564 -0.50565 h -0.46674 -0.46675 v -0.50565 -0.50563 h -0.50564 -0.50564 v -0.46675 -0.46674 h -0.46675 -0.46675 v -0.50565 -0.50564 h -0.50565 -0.50563 v -0.50565 -0.50564 h -0.50565 -0.50564 v -0.46675 -0.46674 h -0.46675 -0.46675 v -0.54455 -0.54453 h 0.46675 0.46675 v -0.46675 -0.46675 h 0.54454 0.54454 v 0.46675 0.46675 h 0.46675 0.46674 v 0.50565 0.50562 h 0.50564 0.50564 v 0.50565 0.50565 h 0.46675 0.46675 v 0.46674 0.46675 h 0.50564 0.50565 v 0.50566 0.50563 h 0.50564 0.50564 v 0.50953 0.50952 l 0.4473,-0.0234 0.4473,-0.0233 0.0231,-0.48619 0.0232,-0.48619 h 0.45933 0.45932 l 0.0232,-0.48621 0.0231,-0.48619 0.48619,-0.0232 0.4862,-0.0232 v -0.46303 -0.46304 h 0.46674 0.46675 v -0.50564 -0.50565 h 0.50564 0.50564 v -0.50564 -0.50564 h 0.50565 0.50564 v -0.50565 -0.50564 h 0.50565 0.50564 v 0.50564 0.50565 h 0.50565 0.50563 v 0.50564 0.50564 h -0.50563 -0.50565 v 0.50565 0.50564 h -0.46303 -0.46304 l -0.0232,0.48619 -0.0232,0.4862 -0.4862,0.0232 -0.48619,0.0232 v 0.50193 0.50193 h -0.50564 -0.50565 v 0.46286 0.46287 l -0.4473,0.0234 -0.4473,0.0233 -0.0232,0.48619 -0.0231,0.4862 h -0.50193 -0.50193 v 0.46674 0.46675 h 0.50564 0.50564 v 0.50565 0.50564 h 0.46675 0.46675 v 0.46675 0.46674 h 0.50564 0.50565 v 0.50565 0.50564 h 0.50564 0.50565 v 0.50564 0.50565 h 0.42414 0.42413 l 0.0232,-0.4862 0.0232,-0.4862 0.4862,-0.0232 0.48619,-0.0232 v -0.46303 -0.46304 h -0.46674 -0.46675 v -0.50564 -0.50565 h -0.50565 -0.50564 v -0.46675 -0.46674 h -0.50565 -0.50564 v -0.50563 -0.50566 h 0.50564 0.50565 v -0.50564 -0.50564 h 0.50564 0.50565 v 0.50564 0.50564 h 0.50564 0.50564 v 0.46304 0.46304 l 0.48619,0.0232 0.4862,0.0232 0.0232,0.48619 0.0232,0.4862 h 0.92979 0.92979 v -0.97239 -0.97239 h -0.46675 -0.46675 v -0.46304 -0.46304 l -0.48619,-0.0232 -0.48619,-0.0232 -0.0232,-0.48619 -0.0232,-0.48621 h -0.50194 -0.50193 v -0.50564 -0.50563 h 0.50564 0.50565 v -0.50565 -0.50564 h 0.50564 0.50564 v 0.50564 0.50565 h 0.50565 0.50564 v 0.46303 0.46304 l 0.48619,0.0232 0.4862,0.0232 0.0232,0.48619 0.0232,0.4862 h 0.46303 0.46304 v -0.50564 -0.50565 h 0.46675 0.46674 v -0.42785 -0.42786 h -0.50564 -0.50564 v -0.50564 -0.50564 h -0.50564 -0.50564 v -0.50564 -0.50564 h -0.46675 -0.46675 v -0.46675 -0.46675 h -0.50565 -0.50564 v -0.50564 -0.50565 h -0.50565 -0.50563 v -0.50564 -0.50565 h -0.46675 -0.46675 v -0.50564 -0.50563 h 0.46303 0.46304 l 0.0232,-0.48621 0.0232,-0.48619 0.5251,-0.0229 0.52509,-0.0229 v 0.50919 0.5092 h 0.50564 0.50564 v 0.46287 0.46286 l 0.4473,0.0233 0.44729,0.0234 0.0232,0.4862 0.0232,0.48619 h 0.50193 0.50193 v 0.50564 0.50565 h 0.46675 0.46674 v 0.46304 0.46303 l 0.4862,0.0232 0.4862,0.0232 0.0232,0.4862 0.0232,0.48619 h 0.46304 0.46303 v -0.50565 -0.50563 h 0.46287 0.46287 l 0.0233,-0.4473 0.0234,-0.4473 0.4862,-0.0232 0.48619,-0.0232 v -0.50193 -0.50194 h 0.50565 0.50564 v -0.46674 -0.46675 h 0.46675 0.46674 v -0.46675 -0.46675 h -0.46674 -0.46675 v -0.50564 -0.50565 h -0.46675 -0.46675 v 0.50565 0.50564 h -0.50564 -0.50565 v 0.46675 0.46675 h -0.46675 -0.46674 v 0.50565 0.50564 h -0.54453 -0.54454 v -0.50564 -0.50565 h -0.46675 -0.46675 v -0.50564 -0.50565 h 0.46304 0.46304 l 0.0232,-0.48619 0.0232,-0.48619 0.4862,-0.0232 0.48619,-0.0232 v -0.46303 -0.46303 h 0.46675 0.46675 v -0.46675 -0.46675 h -0.46675 -0.46675 v -0.50564 -0.50565 h -0.46675 -0.46675 v 0.50565 0.50564 h -0.50564 -0.50565 v 0.46675 0.46675 h -0.50563 -0.50565 v 0.50564 0.50565 h -0.50564 -0.50565 v -0.50565 -0.50564 h -0.46675 -0.46675 v -0.50565 -0.50564 h 0.46304 0.46305 l 0.0232,-0.48619 0.0232,-0.4862 0.4862,-0.0232 0.48618,-0.0232 v -0.45932 -0.45933 l 0.48621,-0.0232 0.4862,-0.0232 v -0.46675 -0.46675 l -0.4862,-0.0232 -0.48621,-0.0232 v -0.46304 -0.46303 h -0.46674 -0.46675 v 0.50564 0.50564 h -0.46303 -0.46304 l -0.0232,0.4862 -0.0232,0.48619 -0.48258,0.0231 -0.48257,0.0231 -0.023,0.48258 -0.0231,0.48257 -0.4862,0.0232 -0.48619,0.0232 v 0.46304 0.46303 h -0.50564 -0.50565 v 0.50564 0.50565 h -0.46303 -0.46304 l -0.0232,0.48619 -0.0232,0.4862 -0.48621,0.0232 -0.48619,0.0232 v 0.46302 0.46304 h -0.50564 -0.50564 v 0.50564 0.50565 h -0.46675 -0.46675 v 0.46675 0.46675 h -0.50563 -0.50565 v 0.50564 0.50565 h -0.50564 -0.50565 v 0.50564 0.50563 h -0.50573 -0.50564 v 0.46675 0.46675 h -0.50564 -0.50565 V 155.84675 155.38 h -0.46675 -0.46675 v -0.54453 -0.54454 h 0.46287 0.46286 l 0.0234,-0.4473 0.0234,-0.4473 0.4862,-0.0232 0.48619,-0.0232 v -0.50193 -0.50193 h 0.50565 0.50564 v -0.50564 -0.50565 h 0.46675 0.46675 v -0.46675 -0.46674 h 0.50564 0.50564 V 149.89564 149.39 h 0.50565 0.50564 v -0.46668 -0.46676 h -0.50564 -0.50565 v -0.46303 -0.46303 l -0.48619,-0.0232 -0.48619,-0.0232 -0.0231,-0.48618 -0.0231,-0.48621 h -0.46305 -0.46303 l -8.4e-4,-0.33061 c -0.002,-0.63668 -0.0377,-0.68067 -0.55255,-0.68067 h -0.45767 v -0.50565 -0.50563 h -0.50565 -0.50564 v -0.46675 -0.46675 h -0.50919 -0.5092 l 0.023,-0.5251 0.023,-0.52508 0.4862,-0.0232 0.48619,-0.0232 v -0.46305 -0.46303 h 0.50564 0.50564 v 0.46303 0.46305 l 0.4862,0.0232 0.4862,0.0232 0.0231,0.48618 0.0232,0.48621 h 0.50194 0.50194 v 0.50564 0.50565 h 0.50562 0.50565 v 0.46674 0.46674 h 0.46056 0.46056 l 0.0542,0.50565 0.0541,0.50565 h 0.45768 0.45769 v 0.50564 0.50565 h 0.46675 0.46675 v -0.50565 -0.50564 h 0.50564 0.50565 v -0.50565 -0.50565 h 0.46674 0.46674 v -0.46674 -0.46674 h 0.50565 0.50564 v -0.50565 -0.50564 h 0.50565 0.50564 v -0.46675 -0.46675 h -0.50564 -0.50565 v -0.46675 -0.46675 h -0.46674 -0.46674 v 0.46675 0.46675 h -0.46304 -0.46305 l -0.0232,0.48619 -0.0232,0.4862 -0.48619,0.0232 -0.48619,0.0232 v 0.50548 0.50549 l -0.5251,-0.0229 -0.52509,-0.0229 -0.0232,-0.4862 -0.0232,-0.48619 h -0.46659 -0.46659 l 0.023,-0.5251 0.023,-0.52509 0.4862,-0.0232 0.48619,-0.0232 v -0.46304 -0.46302 h 0.46304 0.46302 l 0.0232,-0.4862 0.0232,-0.4862 0.48621,-0.0232 0.48618,-0.0232 v -0.92979 -0.92978 h -0.97239 -0.97239 v 0.46675 0.46675 h -0.50563 -0.50565 v 0.50564 0.50565 h -0.46675 -0.46675 v 0.50563 0.50565 h -0.50564 -0.50565 v -0.50565 -0.50563 h -0.50919 -0.5092 l 0.023,-0.5251 0.023,-0.52509 0.48619,-0.0232 0.4862,-0.0232 v -0.46305 -0.46303 h 0.46304 0.46303 l 0.0232,-0.4862 0.0231,-0.48619 0.48619,-0.0232 0.48619,-0.0232 v -0.45933 -0.45932 l -0.48619,-0.0232 -0.48619,-0.0232 -0.0234,-0.4473 -0.0234,-0.4473 h -0.42025 -0.42026 l -0.0232,0.4862 -0.0232,0.48619 -0.4862,0.0232 -0.4862,0.0232 v 0.46305 0.46303 h -0.50564 -0.50565 v 0.50564 0.50565 h -0.5056 -0.50564 v 0.50564 0.50565 h -0.46675 -0.46674 v 0.46675 0.46674 h -0.50564 -0.50564 v 0.50563 0.50566 h -0.50565 -0.50564 v -0.50566 -0.50563 h -0.50565 -0.50564 v -0.50564 -0.50565 h 0.50564 0.50565 v -0.50564 -0.50564 h 0.46675 0.46674 v -0.46676 -0.46674 h 0.50565 0.50564 v -0.50565 -0.50564 h 0.50564 0.50564 v -0.50564 -0.50564 h 0.50564 0.50565 v -0.46675 -0.46674 h 0.46675 0.46674 v -0.46675 -0.46675 h -0.46674 -0.46675 v -0.50565 -0.50564 h -0.50565 -0.50564 v -0.46304 -0.46304 l -0.4862,-0.0232 -0.48619,-0.0232 -0.0232,-0.48619 -0.0231,-0.4862 h -0.46304 -0.46304 v -0.50564 -0.50563 h -0.46674 -0.46675 v 0.50563 0.50564 h -0.50565 -0.50564 v 0.46675 0.46675 h 0.50564 0.50565 v 0.46303 0.46304 l 0.48619,0.0232 0.4862,0.0232 0.0232,0.4862 0.0232,0.48619 h 0.46659 0.46659 l -0.023,0.5251 -0.023,0.52508 -0.44353,0.0232 -0.44352,0.0232 -0.0232,0.44354 -0.0232,0.44353 -0.5251,0.0229 -0.52509,0.0229 v -0.4703 -0.4703 h -0.46675 -0.46675 v -0.50565 -0.50564 h -0.50564 -0.50564 v -0.50564 -0.50566 h -0.46675 -0.46675 v 0.50566 0.50564 h -0.50563 -0.50565 v 0.46674 0.46675 h 0.50565 0.50563 v 0.46305 0.46303 l 0.4862,0.0232 0.48619,0.0232 0.0231,0.48619 0.0232,0.4862 h 0.46304 0.46304 v 0.50565 0.50564 h -0.46675 -0.46675 v 0.50563 0.50565 h -0.54454 -0.54453 v -0.50565 -0.50563 h -0.50565 -0.50564 v -0.46675 -0.46674 h -0.46675 -0.46674 v -0.50565 -0.50565 h -0.463042 -0.46304 l -0.0231,0.4862 -0.0232,0.4862 -0.4473,0.0233 -0.4473,0.0234 v 0.46286 0.46287 h 0.46675 0.46675 v 0.46674 0.46675 h 0.50564 0.505652 v 0.50564 0.50565 h 0.50564 0.50564 v 0.50565 0.50563 h 0.46304 0.46303 l 0.0232,0.48621 0.0231,0.4862 0.48619,0.0232 0.48619,0.0232 v 0.46304 0.46303 h 0.50565 0.50564 v 0.50564 0.50564 h 0.46675 0.46675 v 0.46304 0.46304 l 0.48619,0.0232 0.48621,0.0232 0.0232,0.48619 0.0231,0.4862 h 0.46304 0.46303 v 0.50564 0.50564 h 0.50564 0.50564 v 0.46303 0.46305 l 0.4862,0.0232 0.4862,0.0232 0.0232,0.48619 0.0232,0.48619 h 0.46304 0.46303 v 0.54455 0.54453 h -0.46675 -0.46674 v 0.46675 0.46675 h -0.54455 -0.54454 v -0.45702 c 0,-0.44963 -0.004,-0.45781 -0.24308,-0.50564 -0.13371,-0.0267 -0.34374,-0.0487 -0.46676,-0.0487 -0.22149,0 -0.22365,-0.005 -0.22365,-0.46674 v -0.46675 h -0.50563 -0.50565 v -0.50564 -0.50565 h -0.46675 -0.46674 v -0.50564 -0.50565 h -0.50565 -0.50565 v -0.46303 -0.46303 l -0.48619,-0.0232 -0.48619,-0.0232 -0.0232,-0.4862 -0.0232,-0.48619 h -0.46304 -0.46304 v 0.50564 0.50565 h -0.46674 -0.46675 v 0.46675 0.46675 h -0.50546 -0.50564 v 0.50564 0.50563 h -0.505642 -0.50564 v 0.50566 0.50563 h -0.46675 -0.46674 v 0.50565 0.50564 h -0.50565 -0.50564 v 0.50564 0.50565 h -0.505656 -0.505644 v -0.50565 -0.50564 h -0.509197 -0.509198 l 0.023,-0.52509 0.023,-0.52508 0.486196,-0.0232 0.486197,-0.0232 v -0.46303 -0.46305 h 0.466747 0.466755 v -0.50564 -0.50564 h 0.50564 0.50564 v -0.50565 -0.50563 h 0.50564 0.50565 v -0.50566 -0.50564 h 0.46303 0.46304 l 0.0232,-0.48619 0.0232,-0.48619 0.4862,-0.0232 0.48619,-0.0232 v -0.42044 -0.42042 l -0.48619,-0.0232 -0.4862,-0.0232 -0.023,-0.48257 -0.023,-0.48258 -0.482583,-0.0231 -0.48258,-0.0231 -0.0232,-0.4862 -0.0232,-0.48619 h -0.46304 -0.46303 v -0.46675 -0.46675 h -0.50564 -0.50565 v -0.50564 -0.50564 h -0.424142 -0.424141 l -0.02316,0.48619 -0.02316,0.4862 -0.486196,0.0232 -0.486195,0.0232 v 0.42043 0.42042 l 0.486195,0.0232 0.486196,0.0232 0.02316,0.48619 0.02316,0.4862 h 0.463035 0.463038 v 0.50564 0.50565 h 0.50565 0.50564 v 0.50564 0.50564 h -0.50648 -0.50564 v 0.50565 0.50563 h -0.505652 -0.505644 v -0.50563 -0.50565 h -0.505642 -0.505643 v -0.50564 -0.50564 h -0.505639 -0.505642 v -0.46675 -0.46675 h -0.933561 -0.933496 v 0.92978 0.92979 l 0.486196,0.0232 0.486196,0.0232 0.02316,0.4862 0.02316,0.4862 h 0.463036 0.463036 v 0.46303 0.46304 l 0.486195,0.0232 0.486195,0.0232 0.023,0.52508 0.023,0.5251 h -0.509198 -0.509197 v 0.50565 0.50564 H 93.66633 93.160687 v -0.50564 -0.50565 h -0.505655 -0.505644 v -0.50563 -0.50566 h -0.505643 -0.505643 v -0.46675 -0.46675 H 90.71025 90.282399 v 0.46675 0.46675 H 89.83545 89.388502 l 3.208542,3.20925 3.208543,3.20923 -3.190431,3.1891 -3.19043,3.18908 0.428836,0.0233 0.428837,0.0233 v 0.42398 0.42397 h 0.466746 0.466747 v -0.46675 -0.46675 h 0.466749 0.466747 v -0.50564 -0.50565 h 0.501931 0.501932 l 0.02316,-0.48619 0.02317,-0.48619 0.486195,-0.0232 0.486197,-0.0232 v -0.46304 -0.46303 h 0.505643 0.505642 v -0.50565 -0.50563 h 0.466748 0.466747 v -0.46675 -0.46676 h 0.505644 0.505641 v -0.50564 -0.50564 h 0.50565 0.50564 v -0.50565 -0.50563 h 0.46675 0.46675 v -0.45843 c 0,-0.52393 0.0329,-0.55286 0.62869,-0.55286 h 0.382592 v -0.46675 -0.46675 h 0.50564 0.50564 v -0.50564 -0.50565 h 0.50564 0.50565 v -0.50564 -0.50563 h 0.50564 0.50565 v 0.50563 0.50564 h 0.46675 0.46674 v 0.54454 0.54455 h -0.46674 -0.46675 l -8.4e-4,0.2917 c -0.003,0.59331 -0.0436,0.6418 -0.54884,0.6418 h -0.45386 l -0.0232,0.48618 -0.0231,0.4862 -0.48619,0.0232 -0.48619,0.0232 v 0.46303 0.46304 h -0.46675 -0.46675 v 0.50564 0.50563 h -0.505662 -0.50565 v 0.50565 0.50564 h -0.50564 -0.50565 v 0.46675 0.46675 h 0.50565 0.50564 v 0.46675 0.46675 h 0.45842 c 0.523942,0 0.552872,0.0329 0.552872,0.62869 v 0.38259 h 0.46675 0.46675 v 0.50565 0.50564 h 0.54453 0.54454 v 0.46287 0.46286 l 0.4473,0.0234 0.4473,0.0233 0.0232,0.48619 0.0231,0.4862 h 0.50193 0.50194 v 0.50565 0.50563 h -0.50565 -0.50564 v 0.50564 0.50564 h -0.50565 -0.50564 v -0.50564 -0.50564 h -0.50564 -0.50564 v -0.46303 -0.46304 l -0.4862,-0.0232 -0.48619,-0.0232 -0.0232,-0.4862 -0.0232,-0.48619 h -0.501942 -0.50193 v -0.50564 -0.50565 h -0.46675 c -0.46223,0 -0.46675,-0.002 -0.46675,-0.22365 0,-0.123 -0.0219,-0.33303 -0.0486,-0.46675 -0.0478,-0.23916 -0.056,-0.2431 -0.50565,-0.2431 h -0.45702 v -0.50563 -0.50566 h -0.466747 -0.466748 v 0.50566 0.50563 h -0.505645 -0.505642 v 0.50565 0.50565 H 94.716748 94.25 v 0.46675 0.46674 h -0.50212 -0.501932 l -0.02316,0.48619 -0.02316,0.4862 -0.486196,0.0232 -0.486195,0.0232 v 0.46304 0.46303 h 0.505643 0.505643 v 0.46675 0.46675 h 0.466748 0.466747 v -0.46675 -0.46675 h 0.466748 0.466748 v -0.50563 -0.50565 h 0.505643 0.505643 v -0.50564 -0.50565 h 0.505642 0.505646 v 0.50565 0.50564 h 0.50564 0.50564 v 0.50565 0.50563 h -0.50564 -0.50564 v 0.50564 0.50564 h -0.466749 -0.466748 v 0.50565 0.50564 h -0.505623 -0.505644 v 0.9335 0.93349 h 0.972391 0.972393 v -0.46674 -0.46675 h 0.50564 0.50564 v -0.50564 -0.50565 h 0.46675 0.46675 v -0.50564 -0.50564 h 0.50564 0.505642 v 0.50564 0.50564 h 0.50565 0.50564 v 0.50565 0.50564 h -0.50564 -0.50565 v 0.50565 0.50564 h -0.505642 -0.50564 v 0.50564 0.50564 h -0.46675 -0.46675 v 0.46675 0.46675 h 0.50565 0.50564 v 0.46675 0.46675 h 0.46675 0.466742 v -0.50565 -0.50564 h 0.46675 0.46675 v -0.46675 -0.46675 h 0.50565 0.50564 v -0.50564 -0.50565 h 0.46304 0.46302 l 0.0232,-0.48619 0.0232,-0.48619 0.48619,-0.0232 0.4862,-0.0232 v -0.50194 -0.50193 h 0.50565 0.50563 v -0.46674 -0.46675 h 0.50565 0.50564 v 0.50564 0.50565 h 0.50936 0.50936 l -0.0232,0.48619 -0.0232,0.48619 -0.4862,0.0232 -0.48619,0.0232 v 0.50193 0.50194 h -0.46675 -0.46675 v 0.46674 0.46675 h -0.50564 -0.50565 v 0.50564 0.50565 h -0.50564 -0.50565 v 0.46675 0.46675 h -0.46674 -0.46675 v 0.50563 0.50566 h -0.50563 -0.50565 v 0.46674 0.46675 h 0.50565 0.50563 v 0.46675 0.46675 h 0.46675 0.46674 v 0.50564 0.50564 h 0.50565 0.50564 v 0.50564 0.50564 h 0.46675 0.46675 v 0.46675 0.46675 h 0.46675 0.46675 v -0.46675 z m -28.487517,-17.0133 c -1.591914,-1.59235 -2.878432,-2.91212 -2.858928,-2.93283 0.495368,-0.52623 3.922504,-3.93578 3.956068,-3.93578 0.02614,0 1.324867,1.27768 2.88604,2.83929 l 2.838496,2.8393 1.925993,-1.92485 1.925994,-1.92483 -4.764652,-4.76513 c -2.620558,-2.62081 -4.799895,-4.76512 -4.842971,-4.76512 -0.04308,0 -1.828361,1.7503 -3.9673,3.88957 l -3.888983,3.88956 -3.870433,-3.86985 -3.870427,-3.86986 -4.783971,4.7835 -4.783971,4.7835 1.924681,1.92582 1.924681,1.92584 2.859223,-2.85843 2.859223,-2.85845 1.944967,1.94381 1.944976,1.94381 -2.858436,2.85922 -2.858443,2.85922 1.943811,1.94498 1.943803,1.94498 2.859449,-2.85868 2.859446,-2.85865 2.897242,2.89723 2.89724,2.89725 1.925786,-1.92463 1.925785,-1.92463 z M 70.37659,139.43257 c 0.4689,-1.26218 0.872594,-2.37361 0.897098,-2.46988 0.04421,-0.17368 0.0379,-0.17504 -0.819582,-0.17504 -0.475276,0 -0.864138,0.0149 -0.864138,0.0332 0,0.0346 -0.828964,2.72634 -0.897631,2.91461 -0.02174,0.0595 -0.05492,0.093 -0.07374,0.0742 -0.01881,-0.0189 -0.241752,-0.6977 -0.495408,-1.50861 l -0.461193,-1.47441 -0.900442,-0.022 -0.900436,-0.022 0.198547,0.52754 c 0.109195,0.29014 0.496791,1.31517 0.86133,2.27784 0.364529,0.96267 0.697908,1.84765 0.740831,1.96662 l 0.07805,0.21632 0.892089,-0.0219 0.892088,-0.0219 z m 5.125514,1.63361 v -0.70013 h -1.127973 -1.127973 v -1.7892 -1.7892 h -0.855705 -0.855704 v 2.48933 2.48932 h 1.983678 1.983677 z"
       id="path481"
       sodipodi:nodetypes="ccccccccccccccccccccccccccccccccccccccccccccccccccccccccccccccccccccccccccccccccccccccccccccccccccccccccccccccccccccccccccccccccccccccccccccccccccccccccccccccccccccccccccccccccccccsccccccccccccccccccccccccccccccccccccccccccccccccccccccccccccccccccccccccccsscccccccccccccccccccccccccccccccccccccccccccccccccccccccccccccccccccccccccccccccccccccccccccccccccccccccccccccccccccccccccccccccccccccccccccccccccccccccccccccccccccccccccccccccccccccccccccccccccccccccccccccccccccccccccccccccccccccccccccccccccccccccccccccccccccccccccccccccccccccccccccccccccccccccccccccccccccccccccccccccccccccccccccccccccccccccccccccccccccccccccccccccccccccccccccccccccccccccccccccccccccccccccccccccccccccccccccccccccccccccccccccccccccccccccccccccccccccccccccccccccccccccccccccccccccccccccccccccccccccccccccccccccccccccccccccccscccccccccccccccccccccccccccccccccccccccccccccccccccccccccccccccccccccccccccccccccccccccccccccccccccccccccccccccccccccccccccccccccccccccccccccccccccccccccccccccccccccccccccccccccccccccccccccccccccccccccccccccccccccccccccccccccccccccccccccccccccccccccccccccccccccccccccccccccccccccccccccccccccccccccccccccccccccccccccccccccccccccccccccccccscsscccccccccccccccccccccccccccccccccccccccccccccccccccccccccccccccccccccccccccccccccccccccccccccccccccccccccccccccccccccccccccccccccccccccccccccccccccccccccccccccccccccccccccccccccccccccccccccccccccccccccccccssccccccccccccccccccccccscccccccccccccccccccccccsscccccccccccccccccccccccccccccccccccccsssscccccccccccccccccccccccccccccccccccccccccccccccccccccccccccccccccccccccccccccccccccccccccccccccccccccccccccccccccccccccccccccccccccccccccccccccccccccccccccccccccccccccccccscsscccssscccccccccccccccccccccscsssssscccsssccccccccccccccccc" /></g></svg>
