<?xml version="1.0" encoding="UTF-8" standalone="no"?>
<!-- Created with Inkscape (http://www.inkscape.org/) -->

<svg
   width="91.246986mm"
   height="91.246986mm"
   viewBox="0 0 91.246986 91.246986"
   version="1.1"
   id="svg1009"
   sodipodi:docname="SD.svg"
   inkscape:version="1.2.2 (732a01da63, 2022-12-09)"
   xml:space="preserve"
   xmlns:inkscape="http://www.inkscape.org/namespaces/inkscape"
   xmlns:sodipodi="http://sodipodi.sourceforge.net/DTD/sodipodi-0.dtd"
   xmlns="http://www.w3.org/2000/svg"
   xmlns:svg="http://www.w3.org/2000/svg"><sodipodi:namedview
     id="namedview1011"
     pagecolor="#505050"
     bordercolor="#ffffff"
     borderopacity="1"
     inkscape:showpageshadow="0"
     inkscape:pageopacity="0"
     inkscape:pagecheckerboard="1"
     inkscape:deskcolor="#505050"
     inkscape:document-units="mm"
     showgrid="false"
     inkscape:zoom="1.0456808"
     inkscape:cx="135.31854"
     inkscape:cy="237.64422"
     inkscape:window-width="1920"
     inkscape:window-height="991"
     inkscape:window-x="-9"
     inkscape:window-y="-9"
     inkscape:window-maximized="1"
     inkscape:current-layer="layer1" /><defs
     id="defs1006"><clipPath
       clipPathUnits="userSpaceOnUse"
       id="clipPath80534"><g
         id="g80538"
         transform="matrix(2.8346528,0,0,-2.8346528,153.77903,694.22218)"><path
           d="M -54.249688,-52.093794 H 155.74993 V 244.90555 H -54.249688 Z"
           id="path80536"
           style="stroke-width:0.352777" /></g></clipPath></defs><g
     inkscape:label="Layer 1"
     inkscape:groupmode="layer"
     id="layer1"
     transform="translate(-42.403011,-106.2759)"><path
       style="fill:#ffffff;stroke-width:0.0835568"
       d="m 87.812696,190.71921 c -0.819935,-0.10555 -2.084967,-0.54082 -2.859186,-0.9838 -2.595983,-1.4853 -4.957772,-4.48852 -6.072708,-7.72197 -0.852181,-2.47142 -1.257087,-5.82898 -1.024054,-8.49171 0.05001,-0.57205 0.07799,-1.05315 0.06198,-1.06911 -0.04424,-0.0443 -0.433372,2.07766 -0.723191,3.94381 -0.142435,0.9171 -0.351744,2.02632 -0.465144,2.46493 -0.269315,1.04168 -0.766283,2.06316 -1.227554,2.52311 -0.418954,0.41777 -1.853656,1.1666 -2.563299,1.33791 -0.598196,0.14439 -2.385598,0.14259 -3.133382,-0.003 -2.199728,-0.42877 -4.662254,-1.68133 -6.249833,-3.17898 -1.559292,-1.47095 -2.724051,-3.6633 -3.244234,-6.1064 -0.24715,-1.16072 -0.270098,-3.41102 -0.04648,-4.55385 0.344677,-1.76131 0.951086,-3.23662 1.957666,-4.76274 0.694734,-1.05331 2.552625,-2.93198 3.697457,-3.73878 1.952268,-1.37585 4.613052,-2.40929 7.102331,-2.75855 0.11489,-0.0161 -0.355118,-0.0572 -1.044455,-0.0912 -6.22969,-0.30753 -9.719937,-1.22586 -12.999387,-3.42031 -5.429596,-3.63323 -7.874467,-8.38399 -7.433313,-14.44405 0.257341,-3.53499 1.438085,-6.55546 3.444376,-8.81107 1.844231,-2.07341 3.92072,-3.13302 6.167696,-3.14732 2.890494,-0.0183 5.418148,1.64457 8.161988,5.36985 0.931158,1.26423 4.460279,6.67139 7.621345,11.67708 0.152359,0.24128 0.291428,0.43868 0.309031,0.43868 0.01765,0 -0.06533,-0.21621 -0.184217,-0.48045 -1.967857,-4.37233 -3.021927,-7.90703 -3.507102,-11.76064 -0.188246,-1.49519 -0.189597,-4.18665 -0.0026,-5.55647 0.780916,-5.72614 3.369884,-9.86504 7.655397,-12.23847 3.02451,-1.67504 6.69078,-2.43637 9.704883,-2.01527 1.730409,0.24175 2.69333,0.66568 3.622448,1.5948 0.687873,0.68787 1.058546,1.28596 1.384707,2.23421 0.670004,1.94789 0.680118,4.73732 0.02858,7.86664 -0.26718,1.28318 -0.260853,1.26012 -2.05261,7.47563 -0.826056,2.86553 -1.488191,5.22379 -1.471406,5.24056 0.01678,0.0168 0.232025,-0.4665 0.478314,-1.07397 0.680574,-1.6787 1.812795,-4.06206 2.547168,-5.36186 3.142911,-5.56282 7.156572,-9.09436 11.368162,-10.00263 0.82538,-0.17799 2.78626,-0.13601 3.6491,0.0782 2.06991,0.51373 4.01015,1.67558 5.63142,3.37219 3.46783,3.629 3.48217,8.38378 0.0409,13.54164 -1.04202,1.56179 -2.27985,3.01591 -4.22169,4.95936 -2.86391,2.86627 -5.7583,5.10246 -9.44465,7.29685 -0.78126,0.46506 -1.47688,0.884 -1.54581,0.93097 -0.15497,0.1056 -0.69261,0.35115 4.76274,-2.17525 5.48867,-2.54183 6.31834,-2.87001 8.43925,-3.3382 1.71398,-0.37837 4.1639,-0.44021 5.30587,-0.13393 2.96053,0.794 4.63467,2.92725 5.07028,6.46074 0.13115,1.06377 -0.0166,2.97382 -0.30912,3.99682 -0.55057,1.92531 -1.64342,3.51915 -3.2356,4.7189 -1.61596,1.21766 -4.38094,2.15259 -7.16565,2.42293 -1.7382,0.16874 -5.41128,-0.0475 -10.05496,-0.59199 -0.77376,-0.0907 -1.48817,-0.1628 -1.58759,-0.16016 -0.0994,0.003 0.36445,0.15575 1.03082,0.34025 2.59396,0.71819 5.04671,1.5926 6.47439,2.30813 2.18904,1.09711 3.91827,2.84481 4.6231,4.67249 0.40677,1.05479 0.54248,1.96762 0.49476,3.32784 -0.033,0.9418 -0.0846,1.31637 -0.26452,1.9218 -0.59728,2.00991 -1.89726,3.7784 -3.57538,4.86397 -2.50226,1.6187 -6.06795,1.76611 -8.94226,0.36968 -3.268809,-1.58809 -7.66557,-5.69252 -10.753159,-10.03816 -0.54747,-0.77055 -0.682966,-0.91289 -0.397684,-0.41779 0.657092,1.14037 2.422276,3.38992 3.98218,5.07489 2.114062,2.28356 2.643327,3.0397 3.113782,4.4485 0.252263,0.7554 0.265648,0.85965 0.2631,2.04924 -0.0026,1.19563 -0.0167,1.30038 -0.30731,2.27436 -0.637689,2.13731 -1.700694,3.66647 -3.473927,4.9973 -2.052981,1.54079 -4.528032,2.30224 -6.611545,2.03404 z m 2.757382,-21.46323 c -0.04915,-0.0919 -0.108245,-0.16712 -0.131219,-0.16712 -0.02298,0 -0.0017,0.0752 0.04769,0.16712 0.04915,0.0919 0.108235,0.16711 0.13121,0.16711 0.02298,0 0.0017,-0.0752 -0.04769,-0.16711 z m 11.341112,-6.81859 c -0.0278,-0.0278 -0.0998,-0.0307 -0.16016,-0.007 -0.0666,0.0267 -0.0468,0.0465 0.0505,0.0505 0.0881,0.003 0.13744,-0.0161 0.10968,-0.0439 z"
       id="path1170"
       sodipodi:nodetypes="cssssssssssssssssssssssscscsssssssssssssssssssssssscssssssssssscsscccscscsssss" /></g></svg>
