<?xml version="1.0" encoding="UTF-8" standalone="no"?>
<!-- Created with Inkscape (http://www.inkscape.org/) -->

<svg
   width="91.246986mm"
   height="91.246986mm"
   viewBox="0 0 91.246986 91.246986"
   version="1.1"
   id="svg1009"
   sodipodi:docname="LaFranceHumaniste.svg"
   inkscape:version="1.2.2 (732a01da63, 2022-12-09)"
   xml:space="preserve"
   xmlns:inkscape="http://www.inkscape.org/namespaces/inkscape"
   xmlns:sodipodi="http://sodipodi.sourceforge.net/DTD/sodipodi-0.dtd"
   xmlns="http://www.w3.org/2000/svg"
   xmlns:svg="http://www.w3.org/2000/svg"><sodipodi:namedview
     id="namedview1011"
     pagecolor="#505050"
     bordercolor="#ffffff"
     borderopacity="1"
     inkscape:showpageshadow="0"
     inkscape:pageopacity="0"
     inkscape:pagecheckerboard="1"
     inkscape:deskcolor="#505050"
     inkscape:document-units="mm"
     showgrid="false"
     inkscape:zoom="2.0913616"
     inkscape:cx="216.6053"
     inkscape:cy="184.80783"
     inkscape:window-width="1920"
     inkscape:window-height="991"
     inkscape:window-x="-9"
     inkscape:window-y="-9"
     inkscape:window-maximized="1"
     inkscape:current-layer="layer1" /><defs
     id="defs1006"><clipPath
       clipPathUnits="userSpaceOnUse"
       id="clipPath80534"><g
         id="g80538"
         transform="matrix(2.8346528,0,0,-2.8346528,153.77903,694.22218)"><path
           d="M -54.249688,-52.093794 H 155.74993 V 244.90555 H -54.249688 Z"
           id="path80536"
           style="stroke-width:0.352777" /></g></clipPath></defs><g
     inkscape:label="Layer 1"
     inkscape:groupmode="layer"
     id="layer1"
     transform="translate(-42.403011,-106.2759)"><g
       style="clip-rule:evenodd;fill-rule:evenodd;stroke-linejoin:round;stroke-miterlimit:2"
       id="g15962"
       transform="matrix(0.05201826,0,0,0.05201826,44.417958,143.08443)"><path
         d="m 47.043,133.207 h 52.562 v 36.002 H 0 V 0 h 47.043 z"
         style="fill:#ffffff;fill-rule:nonzero"
         id="path15905" /><path
         d="m 111.725,65.283 c 5.04,-10.399 11.918,-18.398 20.641,-24.001 8.719,-5.599 18.439,-8.4 29.161,-8.4 9.279,0 17.281,1.841 24.001,5.52 6.721,3.683 11.918,8.64 15.601,14.88 V 34.561 h 47.042 v 134.647 h -47.042 v -18.721 c -3.683,6.241 -8.921,11.201 -15.72,14.882 -6.803,3.682 -14.761,5.519 -23.882,5.519 -10.721,0 -20.442,-2.797 -29.161,-8.401 -8.723,-5.598 -15.601,-13.639 -20.641,-24.121 -5.04,-10.478 -7.561,-22.68 -7.561,-36.601 0,-13.921 2.52,-26.079 7.561,-36.482 z m 82.324,16.081 c -4.722,-4.958 -10.523,-7.44 -17.401,-7.44 -7.043,0 -12.882,2.441 -17.521,7.32 -4.643,4.883 -6.961,11.723 -6.961,20.521 0,8.64 2.318,15.481 6.961,20.521 4.639,5.04 10.478,7.561 17.521,7.561 6.878,0 12.679,-2.479 17.401,-7.441 4.718,-4.958 7.08,-11.839 7.08,-20.641 0,-8.64 -2.362,-15.439 -7.08,-20.401 z"
         style="fill:#ffffff;fill-rule:nonzero"
         id="path15907" /><path
         d="m 509.264,168.831 v 168.406 h -47.043 v -67.923 h -65.999 v 67.923 H 349.18 V 168.831 h 47.042 v 62.801 h 65.999 v -62.801 z"
         style="fill:#ffffff;fill-rule:nonzero"
         id="path15909" /><path
         d="m 667.91,202.591 v 134.647 h -47.282 v -19.201 c -4.002,6.083 -9.522,11.003 -16.56,14.761 -7.043,3.761 -15.121,5.64 -24.241,5.64 -15.683,0 -28.044,-5.161 -37.082,-15.481 -9.042,-10.32 -13.561,-24.361 -13.561,-42.122 v -78.244 h 46.802 v 72.244 c 0,7.68 2.04,13.721 6.12,18.121 4.08,4.403 9.48,6.6 16.201,6.6 6.878,0 12.319,-2.198 16.32,-6.6 3.998,-4.399 6.001,-10.44 6.001,-18.121 v -72.244 z"
         style="fill:#ffffff;fill-rule:nonzero"
         id="path15911" /><path
         d="m 904.678,216.752 c 9.679,10.242 14.521,24.241 14.521,42.002 v 78.483 h -47.043 v -72.243 c 0,-7.2 -2.003,-12.799 -6,-16.801 -4.002,-3.998 -9.443,-6.001 -16.321,-6.001 -6.878,0 -12.323,2.003 -16.321,6.001 -3.998,3.998 -6,9.6 -6,16.801 v 72.243 h -47.043 v -72.243 c 0,-7.2 -1.961,-12.799 -5.88,-16.801 -3.923,-3.998 -9.323,-6.001 -16.201,-6.001 -7.043,0 -12.563,2.003 -16.561,6.001 -3.998,3.998 -6,9.6 -6,16.801 v 72.243 H 688.786 V 202.59 h 47.043 v 17.761 c 4.159,-5.76 9.559,-10.358 16.201,-13.8 6.638,-3.439 14.28,-5.161 22.921,-5.161 9.919,0 18.758,2.16 26.521,6.48 7.759,4.32 13.879,10.403 18.361,18.241 4.8,-7.358 11.12,-13.32 18.961,-17.881 7.837,-4.56 16.478,-6.84 25.921,-6.84 16.959,0 30.279,5.123 39.962,15.361 z"
         style="fill:#ffffff;fill-rule:nonzero"
         id="path15913" /><path
         d="m 938.757,233.312 c 5.04,-10.399 11.918,-18.398 20.641,-24.001 8.719,-5.599 18.439,-8.4 29.161,-8.4 9.278,0 17.281,1.841 24.002,5.52 6.72,3.683 11.918,8.64 15.6,14.88 V 202.59 h 47.043 v 134.647 h -47.043 v -18.721 c -3.683,6.241 -8.921,11.202 -15.72,14.881 -6.803,3.683 -14.761,5.52 -23.882,5.52 -10.721,0 -20.442,-2.798 -29.161,-8.401 -8.723,-5.599 -15.601,-13.639 -20.641,-24.121 -5.04,-10.478 -7.56,-22.68 -7.56,-36.601 0,-13.921 2.52,-26.079 7.56,-36.482 z m 82.324,16.081 c -4.722,-4.958 -10.523,-7.44 -17.401,-7.44 -7.043,0 -12.882,2.441 -17.521,7.32 -4.642,4.883 -6.96,11.723 -6.96,20.521 0,8.64 2.318,15.481 6.96,20.521 4.639,5.04 10.478,7.561 17.521,7.561 6.878,0 12.679,-2.479 17.401,-7.441 4.718,-4.958 7.08,-11.839 7.08,-20.641 0,-8.64 -2.362,-15.439 -7.08,-20.401 z"
         style="fill:#ffffff;fill-rule:nonzero"
         id="path15915" /><path
         d="m 1221.128,216.872 c 9.12,10.32 13.681,24.282 13.681,41.882 v 78.483 h -47.043 v -72.243 c 0,-7.681 -2.003,-13.719 -6,-18.121 -4.002,-4.398 -9.361,-6.6 -16.081,-6.6 -7.043,0 -12.563,2.201 -16.561,6.6 -4.002,4.403 -6,10.44 -6,18.121 v 72.243 h -47.043 V 202.59 h 47.043 v 19.202 c 4.159,-6.079 9.758,-11 16.801,-14.761 7.039,-3.758 15.121,-5.64 24.241,-5.64 15.518,0 27.841,5.161 36.962,15.481 z"
         style="fill:#ffffff;fill-rule:nonzero"
         id="path15917" /><path
         d="m 1258.448,183.27 c -5.04,-4.561 -7.561,-10.28 -7.561,-17.161 0,-7.039 2.52,-12.879 7.561,-17.521 5.04,-4.639 11.719,-6.961 20.041,-6.961 8.16,0 14.76,2.321 19.801,6.961 5.04,4.642 7.561,10.481 7.561,17.521 0,6.881 -2.52,12.6 -7.561,17.161 -5.04,4.56 -11.64,6.84 -19.801,6.84 -8.322,0 -15.001,-2.28 -20.041,-6.84 z m 43.322,19.321 v 134.647 h -47.043 V 202.591 Z"
         style="fill:#ffffff;fill-rule:nonzero"
         id="path15919" /><path
         d="m 1347.491,332.797 c -9.522,-4.08 -17.04,-9.68 -22.561,-16.801 -5.52,-7.117 -8.602,-15.158 -9.24,-24.121 h 45.602 c 0.638,4.32 2.64,7.681 6.001,10.081 3.36,2.4 7.519,3.6 12.48,3.6 3.84,0 6.878,-0.799 9.121,-2.4 2.239,-1.597 3.36,-3.678 3.36,-6.24 0,-3.36 -1.842,-5.839 -5.52,-7.441 -3.683,-1.597 -9.762,-3.36 -18.241,-5.28 -9.6,-1.92 -17.603,-4.08 -24.001,-6.48 -6.402,-2.4 -11.963,-6.319 -16.681,-11.76 -4.722,-5.438 -7.08,-12.8 -7.08,-22.081 0,-7.999 2.16,-15.241 6.48,-21.721 4.32,-6.48 10.68,-11.64 19.081,-15.481 8.4,-3.84 18.518,-5.76 30.361,-5.76 17.599,0 31.442,4.32 41.522,12.96 10.081,8.641 15.92,20.004 17.521,34.082 h -42.482 c -0.803,-4.32 -2.682,-7.639 -5.64,-9.961 -2.963,-2.317 -6.923,-3.48 -11.881,-3.48 -3.84,0 -6.761,0.72 -8.76,2.16 -2.003,1.44 -3,3.442 -3,6.001 0,3.202 1.837,5.64 5.52,7.32 3.679,1.679 9.6,3.401 17.761,5.16 9.758,2.081 17.881,4.403 24.361,6.96 6.48,2.562 12.158,6.683 17.04,12.361 4.88,5.682 7.32,13.403 7.32,23.161 0,7.842 -2.28,14.881 -6.84,21.121 -4.56,6.24 -11.04,11.16 -19.441,14.761 -8.4,3.6 -18.282,5.4 -29.641,5.4 -12.162,0 -23.004,-2.04 -32.522,-6.12 z"
         style="fill:#ffffff;fill-rule:nonzero"
         id="path15921" /><path
         d="m 1532.417,297.155 v 40.082 h -20.401 c -34.404,0 -51.603,-17.041 -51.603,-51.122 v -44.402 h -16.56 v -39.122 h 16.56 V 169.95 h 47.282 v 32.641 h 24.481 v 39.122 h -24.481 v 45.122 c 0,3.683 0.84,6.322 2.52,7.92 1.68,1.601 4.519,2.4 8.52,2.4 z"
         style="fill:#ffffff;fill-rule:nonzero"
         id="path15923" /><path
         d="m 1675.942,279.394 h -89.044 c 0.48,7.362 2.52,12.841 6.12,16.44 3.601,3.601 8.198,5.401 13.801,5.401 7.838,0 13.44,-3.518 16.801,-10.561 h 50.163 c -2.081,9.282 -6.121,17.562 -12.121,24.841 -6.001,7.283 -13.561,13.002 -22.681,17.161 -9.121,4.162 -19.201,6.24 -30.241,6.24 -13.283,0 -25.081,-2.798 -35.402,-8.401 -10.32,-5.599 -18.402,-13.598 -24.241,-24.001 -5.843,-10.399 -8.76,-22.64 -8.76,-36.721 0,-14.081 2.88,-26.281 8.64,-36.602 5.76,-10.32 13.801,-18.278 24.121,-23.881 10.32,-5.599 22.201,-8.4 35.642,-8.4 13.279,0 25.04,2.723 35.282,8.16 10.238,5.441 18.241,13.242 24.001,23.401 5.76,10.163 8.64,22.123 8.64,35.882 0,3.683 -0.24,7.361 -0.72,11.04 z m -47.283,-22.801 c 0,-5.76 -1.92,-10.279 -5.76,-13.561 -3.84,-3.277 -8.64,-4.92 -14.401,-4.92 -5.761,0 -10.482,1.56 -14.16,4.68 -3.683,3.121 -6.083,7.722 -7.2,13.801 h 41.522 z"
         style="fill:#ffffff;fill-rule:nonzero"
         id="path15925" /><path
         d="m 416.147,0 v 37.442 h -66.516 v 29.761 h 50.393 v 35.761 h -50.393 v 66.243 H 303.06 V 0 Z"
         style="fill:#ffffff;fill-rule:nonzero"
         id="path15927" /><path
         d="m 531.89,65.283 c 5.04,-10.399 11.918,-18.398 20.641,-24.001 8.719,-5.599 18.439,-8.4 29.161,-8.4 9.278,0 17.281,1.841 24.002,5.52 6.72,3.683 11.918,8.64 15.6,14.88 V 34.561 h 47.043 v 134.647 h -47.043 v -18.721 c -3.683,6.241 -8.921,11.202 -15.72,14.881 -6.803,3.683 -14.761,5.52 -23.882,5.52 -10.721,0 -20.442,-2.798 -29.161,-8.401 -8.723,-5.599 -15.601,-13.639 -20.641,-24.121 -5.04,-10.478 -7.56,-22.68 -7.56,-36.601 0,-13.921 2.52,-26.079 7.56,-36.482 z m 82.324,16.081 c -4.722,-4.958 -10.523,-7.44 -17.401,-7.44 -7.043,0 -12.882,2.441 -17.521,7.32 -4.642,4.883 -6.96,11.723 -6.96,20.521 0,8.64 2.318,15.481 6.96,20.521 4.639,5.04 10.478,7.561 17.521,7.561 6.878,0 12.679,-2.479 17.401,-7.441 4.718,-4.958 7.08,-11.839 7.08,-20.641 0,-8.64 -2.362,-15.439 -7.08,-20.401 z"
         style="fill:#ffffff;fill-rule:nonzero"
         id="path15929" /><path
         d="m 814.262,48.843 c 9.12,10.32 13.681,24.282 13.681,41.882 v 78.483 H 780.9 V 96.965 c 0,-7.681 -2.003,-13.719 -6,-18.121 -4.002,-4.398 -9.361,-6.6 -16.081,-6.6 -7.043,0 -12.563,2.201 -16.561,6.6 -4.002,4.403 -6,10.44 -6,18.121 v 72.243 H 689.215 V 34.562 h 47.043 v 19.202 c 4.159,-6.079 9.758,-11 16.801,-14.761 7.039,-3.758 15.121,-5.64 24.241,-5.64 15.518,0 27.841,5.161 36.962,15.481 z"
         style="fill:#ffffff;fill-rule:nonzero"
         id="path15931" /><path
         d="m 848.821,65.283 c 5.76,-10.399 13.801,-18.398 24.121,-24.001 10.32,-5.599 22.119,-8.4 35.402,-8.4 17.12,0 31.52,4.68 43.202,14.04 11.678,9.36 19.201,22.441 22.561,39.242 h -49.922 c -2.88,-8.798 -8.483,-13.2 -16.801,-13.2 -5.921,0 -10.601,2.441 -14.04,7.32 -3.443,4.882 -5.161,12.041 -5.161,21.481 0,9.44 1.717,16.643 5.161,21.601 3.439,4.962 8.119,7.441 14.04,7.441 8.479,0 14.078,-4.399 16.801,-13.201 h 49.922 c -3.36,16.643 -10.883,29.683 -22.561,39.122 -11.682,9.442 -26.082,14.16 -43.202,14.16 -13.283,0 -25.081,-2.798 -35.402,-8.401 -10.32,-5.599 -18.361,-13.598 -24.121,-24.001 -5.76,-10.399 -8.64,-22.64 -8.64,-36.721 0,-13.921 2.88,-26.079 8.64,-36.482 z"
         style="fill:#ffffff;fill-rule:nonzero"
         id="path15933" /><path
         d="m 1115.471,111.366 h -89.044 c 0.48,7.362 2.52,12.841 6.12,16.44 3.601,3.601 8.198,5.401 13.801,5.401 7.838,0 13.44,-3.518 16.801,-10.561 h 50.163 c -2.081,9.282 -6.121,17.562 -12.121,24.841 -6.001,7.283 -13.561,13.002 -22.681,17.161 -9.121,4.162 -19.201,6.24 -30.241,6.24 -13.283,0 -25.081,-2.798 -35.402,-8.401 -10.32,-5.599 -18.402,-13.598 -24.241,-24.001 -5.843,-10.399 -8.76,-22.64 -8.76,-36.721 0,-14.081 2.88,-26.281 8.64,-36.602 5.76,-10.32 13.801,-18.278 24.121,-23.881 10.32,-5.599 22.201,-8.4 35.642,-8.4 13.279,0 25.04,2.723 35.282,8.16 10.238,5.441 18.241,13.242 24.001,23.401 5.76,10.163 8.64,22.123 8.64,35.882 0,3.683 -0.24,7.361 -0.72,11.04 z m -47.282,-22.802 c 0,-5.76 -1.92,-10.279 -5.76,-13.561 -3.84,-3.277 -8.64,-4.92 -14.401,-4.92 -5.761,0 -10.482,1.56 -14.16,4.68 -3.683,3.121 -6.083,7.722 -7.2,13.801 h 41.522 z"
         style="fill:#ffffff;fill-rule:nonzero"
         id="path15935" /><path
         d="m 503.856,35.047 c -20.019,0 -33.842,8.152 -41.482,23.872 l -0.01,-1.171 V 36.895 h -46.217 v 132.08 h 46.579 l 0.027,6.573 v -6.573 h 0.109 V 114.62 l -0.023,-2.69 c 0,-11.458 2.825,-17.402 7.131,-21.751 4.811,-4.856 12.147,-8.245 21.124,-8.536 15.261,-0.494 23.88,3.268 28.829,8.53 V 40.147 c -0.745,-2.369 -6.49,-5.099 -16.068,-5.099 z"
         style="fill:#ffffff;fill-rule:nonzero"
         id="path15937" /></g></g></svg>
