<?xml version="1.0" encoding="UTF-8" standalone="no"?>
<!-- Created with Inkscape (http://www.inkscape.org/) -->

<svg
   width="257.17499mm"
   height="134.54041mm"
   viewBox="0 0 257.17499 134.54041"
   version="1.1"
   id="svg5"
   xml:space="preserve"
   inkscape:version="1.2.2 (732a01da63, 2022-12-09)"
   sodipodi:docname="600logo2.svg"
   xmlns:inkscape="http://www.inkscape.org/namespaces/inkscape"
   xmlns:sodipodi="http://sodipodi.sourceforge.net/DTD/sodipodi-0.dtd"
   xmlns="http://www.w3.org/2000/svg"
   xmlns:svg="http://www.w3.org/2000/svg"><sodipodi:namedview
     id="namedview7"
     pagecolor="#505050"
     bordercolor="#ffffff"
     borderopacity="1"
     inkscape:showpageshadow="0"
     inkscape:pageopacity="0"
     inkscape:pagecheckerboard="1"
     inkscape:deskcolor="#505050"
     inkscape:document-units="mm"
     showgrid="false"
     inkscape:zoom="0.73940797"
     inkscape:cx="513.24846"
     inkscape:cy="625.50043"
     inkscape:window-width="1920"
     inkscape:window-height="991"
     inkscape:window-x="-9"
     inkscape:window-y="-9"
     inkscape:window-maximized="1"
     inkscape:current-layer="g330" /><defs
     id="defs2" /><g
     inkscape:label="Layer 1"
     inkscape:groupmode="layer"
     id="layer1"
     transform="translate(23.587493,-100.34583)"><g
       id="g330"
       transform="translate(-6.285541,12.166266)"
       style="stroke:#ffffff"><rect
         style="fill:#fc454c;fill-opacity:1;fill-rule:evenodd;stroke:none;stroke-width:0.264999;stroke-linecap:round;stroke-linejoin:bevel;stroke-dasharray:none;paint-order:markers stroke fill"
         id="rect1411"
         width="257.17499"
         height="96.308327"
         x="-17.301952"
         y="88.179565" /><path
         style="fill:#ffffff;stroke:none;stroke-width:0.465;stroke-dasharray:none"
         d="m -6.7847705,169.54023 -5.2255205,-7.2477 v -27.51731 -27.51731 l 5.2428658,-7.22407 5.2428651,-7.224063 34.5769271,-0.06713 34.576925,-0.06713 V 105.24421 117.8129 H 44.742834 21.856375 v 3.04271 3.04271 h 17.797876 17.797872 l 5.088586,6.34167 5.088583,6.34166 v 12.04906 12.04907 l -5.093229,8.06608 -5.093229,8.06609 -29.501042,-0.012 -29.5010417,-0.012 -5.2255208,-7.2477 z M 33.762625,148.90144 v -3.04271 H 27.8095 21.856375 v 3.04271 3.04271 h 5.953125 5.953125 z m 42.769528,19.75981 -5.198694,-8.15374 V 135.26295 110.0184 l 5.22552,-8.66817 5.225521,-8.668165 29.10417,0.01035 29.10416,0.01037 5.61953,8.784745 5.61953,8.78475 0.003,25.8881 0.003,25.88809 -5.32384,7.38326 -5.32383,7.38325 H 111.1604 81.730845 Z m 40.774587,-33.98116 0.0681,-17.13177 h -6.08735 -6.08734 v 17.20288 17.20289 l 6.01927,-0.0711 6.01927,-0.0711 z m 46.55029,39.95208 c -0.77364,-1.20054 -3.09606,-4.82537 -5.16093,-8.05517 l -3.75431,-5.87235 v -25.44768 -25.44768 l 5.18139,-8.5659 5.18139,-8.565905 h 29.05505 29.05504 l 5.58336,8.689065 5.58336,8.68906 v 26.10063 26.10063 l -5.22553,7.27187 -5.22552,7.27186 -29.43333,0.007 -29.43334,0.007 z m 36.85768,-39.88594 v -17.19791 h -5.95313 -5.95312 v 17.19791 17.19792 h 5.95312 5.95313 z"
         id="path332" /><text
         xml:space="preserve"
         style="font-weight:bold;font-size:33.622px;font-family:Decima;-inkscape-font-specification:'Decima Bold';text-align:end;text-anchor:end;fill:#1a1a1a;fill-opacity:1;fill-rule:evenodd;stroke:none;stroke-width:1.24482;stroke-linecap:round;stroke-linejoin:bevel;paint-order:markers stroke fill"
         x="241.89037"
         y="216.33179"
         id="text290"><tspan
           sodipodi:role="line"
           id="tspan288"
           style="font-style:normal;font-variant:normal;font-weight:bold;font-stretch:normal;font-family:DecimaMonoPro-Bold;-inkscape-font-specification:'DecimaMonoPro-Bold Bold';fill:#1a1a1a;fill-opacity:1;stroke:none;stroke-width:1.24484"
           x="241.89035"
           y="216.33179">AltıÇiftSıfır</tspan></text></g></g></svg>
