<!-- Results: June 2023 legislative election (per region); geometry: geoBoundaries.org (gbOpen) -->
<svg xmlns="http://www.w3.org/2000/svg" viewBox="0 0 1000 871.2" width="1000" height="871.2">
<g fill="#E5E7EB" stroke="#111827" stroke-width="1" stroke-linejoin="round" fill-rule="evenodd">
<path id="agion_oros" d="M454.5,198.4L457.7,201.0L469.3,202.7L474.9,210.3L474.9,213.2L480.4,217.2L481.3,221.5L482.8,223.2L491.6,219.8L489.9,214.4L480.9,206.8L477.2,199.0L472.2,197.7L471.3,194.2L460.3,191.9L457.3,188.1L456.0,183.9L454.3,181.8L453.5,183.2L455.1,188.7L454.5,193.2L455.5,196.1L454.5,198.4Z"/>
<path id="crete" d="M465.4,844.8L460.1,843.3L459.7,844.8L457.6,845.2L458.7,847.0L465.5,851.2L466.3,850.7L464.4,847.9L465.4,844.8Z M616.5,842.5L612.5,842.4L611.7,843.3L614.2,844.1L616.6,843.3L616.5,842.5Z M568.2,775.1L565.1,778.0L570.2,779.4L570.9,776.8L568.2,775.1Z M617.8,799.3L619.0,795.8L617.4,794.8L616.8,799.2L617.8,799.3Z M654.9,836.7L656.4,835.5L654.0,834.4L653.5,836.0L654.9,836.7Z M436.5,767.2L433.2,765.8L433.1,760.0L431.7,754.1L432.8,751.8L429.4,748.8L426.4,755.0L428.6,765.9L427.5,770.3L421.6,771.3L417.6,768.9L417.2,758.6L416.0,756.6L416.5,758.4L415.5,762.0L414.3,760.7L414.9,764.2L413.5,768.1L414.4,772.9L412.1,775.3L412.6,777.3L413.7,777.6L413.5,779.9L411.4,781.4L411.7,783.4L409.9,787.1L410.3,790.0L411.6,791.7L409.4,792.7L408.7,794.1L411.0,797.6L414.5,798.7L414.0,800.5L414.9,801.8L422.3,801.3L424.0,803.0L425.7,801.3L430.7,801.2L433.8,802.1L436.6,800.2L443.3,801.5L446.7,803.3L453.1,802.4L455.9,805.8L458.6,806.4L462.1,805.4L466.6,805.5L468.4,806.6L472.3,805.7L475.6,807.9L480.7,808.6L484.0,807.0L487.0,807.7L490.4,806.5L491.6,807.8L490.8,808.5L496.3,811.3L502.8,812.2L506.3,817.1L519.2,817.5L523.2,819.1L525.4,827.5L524.1,828.2L524.7,833.9L522.8,837.6L528.4,837.3L532.8,835.4L544.5,837.3L545.0,836.4L549.4,836.5L552.1,835.3L557.0,836.3L560.7,834.1L566.1,834.9L572.9,832.4L574.7,830.3L578.7,830.8L582.7,828.9L586.9,830.3L590.3,829.7L595.3,830.7L603.7,827.9L610.0,828.2L612.4,827.1L622.5,828.9L632.1,825.4L639.5,824.2L644.1,826.8L649.8,826.6L650.6,829.1L652.8,829.0L656.7,827.1L659.8,827.0L663.3,824.4L667.2,818.6L666.7,817.1L668.1,815.4L668.0,809.5L671.5,807.9L671.3,805.9L669.9,807.2L667.0,805.0L666.4,798.7L671.1,793.5L670.7,792.3L668.2,793.2L669.9,794.1L667.4,794.8L668.6,796.0L665.9,796.5L665.5,797.5L663.5,796.7L662.7,799.9L657.5,805.6L654.7,806.2L652.3,805.4L651.9,802.4L648.2,803.4L647.2,802.2L647.7,801.6L646.3,802.9L644.4,802.3L641.3,805.9L638.1,805.7L636.6,807.9L631.9,807.2L630.2,810.5L627.5,810.7L625.2,815.0L623.2,816.0L616.1,813.8L614.4,808.5L615.4,805.5L614.8,803.4L617.2,802.1L615.5,797.9L616.0,793.9L619.3,792.0L620.0,789.5L613.4,790.1L609.7,788.8L601.5,791.9L598.8,791.8L593.6,794.7L588.9,795.1L585.3,792.8L584.0,789.9L566.5,790.5L565.2,789.0L560.6,789.3L561.5,788.5L557.8,789.8L552.8,789.4L551.6,787.7L551.7,782.7L549.6,782.3L549.4,780.4L547.1,781.1L545.2,779.5L543.5,782.4L539.9,782.0L537.1,780.1L535.9,781.6L532.4,782.0L527.9,782.0L527.6,780.5L522.8,779.8L515.2,780.4L510.9,783.8L504.2,785.9L489.2,787.1L487.9,788.2L481.7,788.0L478.6,786.9L478.2,776.4L476.6,774.3L471.6,777.1L468.2,774.4L465.5,774.6L459.7,771.9L460.9,770.6L463.7,770.5L469.6,771.8L471.2,770.2L472.9,766.8L469.9,761.0L465.4,759.5L461.7,760.7L460.8,761.9L462.1,765.1L458.9,765.3L458.5,768.0L456.8,769.4L449.6,769.7L436.5,767.2Z"/>
<path id="attica" d="M387.2,726.2L385.6,724.4L387.5,730.6L390.9,734.1L390.1,727.5L389.1,726.3L387.2,726.2Z M355.7,668.9L352.8,669.7L350.1,676.0L352.9,679.8L352.0,681.7L353.0,685.0L350.9,686.4L352.3,688.8L351.8,690.4L355.0,695.4L364.6,698.3L365.3,688.1L366.8,687.2L368.6,688.0L369.7,685.0L358.9,676.1L355.7,668.9Z M373.2,564.2L370.8,563.4L369.0,564.4L372.9,569.2L374.8,569.0L376.0,565.9L373.2,564.2Z M414.2,553.7L408.8,553.1L403.6,555.3L394.2,561.5L397.3,562.2L402.1,559.4L407.0,559.3L407.3,556.4L413.2,554.9L414.2,553.7Z M394.2,556.7L392.4,555.4L391.6,557.3L390.6,555.8L386.6,557.2L388.4,558.9L390.1,559.0L394.2,556.7Z M408.7,534.8L405.6,533.0L405.4,530.7L404.5,533.6L400.1,534.7L403.3,538.2L403.8,536.8L406.3,537.7L408.2,536.9L409.4,535.1L408.7,534.8Z M409.7,479.9L406.2,478.2L404.5,479.0L404.5,480.8L399.5,480.4L402.5,481.8L399.4,483.5L399.9,484.3L406.8,483.2L404.2,487.5L398.4,486.8L398.0,491.1L401.9,493.3L406.1,490.3L408.5,490.8L408.2,488.9L409.9,488.8L410.8,485.5L414.1,484.9L410.6,484.6L411.7,483.9L409.5,482.8L411.1,478.9L409.7,479.9Z M393.2,512.8L391.6,513.7L390.7,517.0L392.1,517.3L395.2,514.6L394.5,512.8L393.2,512.8Z M405.9,505.5L399.4,506.8L400.9,510.7L403.6,512.3L404.2,514.2L402.6,515.6L405.1,517.3L409.5,515.0L409.1,512.9L410.9,510.8L410.5,509.0L413.2,506.5L413.0,505.8L405.9,505.5Z M377.1,484.2L381.7,481.8L385.6,481.1L399.6,482.2L396.5,480.8L399.2,479.8L402.5,475.7L406.4,475.4L407.0,474.0L409.1,473.2L411.6,474.5L414.1,473.1L416.2,475.0L416.2,477.3L415.0,478.9L413.1,478.6L413.8,479.3L412.1,480.9L412.3,482.7L415.5,484.2L417.0,483.1L417.2,484.7L418.7,485.4L420.4,484.6L420.2,485.6L418.5,486.0L419.6,487.2L421.5,486.5L420.9,485.8L424.2,485.3L424.8,486.2L424.1,486.9L427.2,489.3L428.2,493.2L430.5,495.2L429.8,496.1L432.4,498.2L432.3,500.0L431.1,500.7L432.4,500.6L432.7,501.7L433.4,500.8L434.2,502.6L435.6,500.0L437.8,501.1L439.2,500.5L444.7,505.3L445.5,511.7L448.9,511.7L448.0,513.4L448.6,517.5L457.0,519.8L460.8,515.7L459.3,514.7L460.0,513.6L459.0,510.3L461.2,509.0L462.0,503.2L458.4,499.7L459.4,495.5L458.0,494.7L458.2,493.4L456.3,493.9L455.0,491.9L458.0,490.9L458.2,489.9L457.0,487.9L454.6,487.2L455.6,485.5L454.9,480.8L456.9,479.3L454.1,474.1L453.9,470.6L452.2,466.1L454.9,462.9L459.2,461.6L459.8,459.5L461.5,459.2L459.5,456.9L460.8,454.7L456.9,452.1L449.6,444.5L446.5,443.3L444.0,443.3L436.0,439.7L434.1,440.1L432.4,438.1L425.0,437.9L424.4,439.8L422.5,440.2L422.6,442.7L421.1,443.1L419.8,445.9L419.5,449.9L420.3,451.5L419.6,453.5L420.2,454.5L418.8,456.2L419.5,457.7L414.6,459.8L412.5,462.0L408.6,462.4L407.8,460.1L403.5,458.9L403.4,453.6L398.5,454.0L395.3,453.1L394.9,451.3L396.9,450.3L397.3,446.7L390.6,447.2L387.6,450.0L387.1,456.5L381.0,455.9L372.0,458.4L377.9,458.8L381.3,460.4L380.8,461.3L376.9,461.7L377.1,463.5L379.4,463.5L380.6,464.7L380.4,466.7L377.0,468.2L376.1,469.7L371.2,471.3L371.1,475.0L372.5,476.1L370.9,476.9L370.2,479.1L371.0,480.3L376.3,482.2L377.1,484.2Z M444.7,538.9L446.9,541.8L448.6,542.5L447.4,539.9L444.7,538.9Z M400.0,548.2L407.4,546.6L409.1,545.4L409.0,543.5L401.7,537.6L396.9,536.7L396.7,535.6L398.6,535.4L399.4,534.2L394.7,531.1L396.3,530.7L399.1,524.5L397.8,521.8L392.8,521.7L390.6,522.3L389.0,524.0L392.8,527.7L394.5,531.8L391.3,533.9L385.7,531.1L384.9,529.2L383.2,528.1L379.0,526.4L377.6,527.2L377.8,529.6L376.3,530.5L375.6,532.6L376.8,534.8L380.8,535.2L383.7,537.6L385.8,537.6L385.9,538.6L388.5,538.2L389.2,541.2L392.2,541.1L392.8,542.7L394.4,542.1L398.2,542.9L399.8,541.5L402.8,542.2L400.0,548.2Z"/>
<path id="macedonia_thrace" d="M516.7,140.5L515.0,138.3L510.2,141.3L508.6,143.5L506.8,143.1L502.0,155.3L503.6,160.2L509.4,160.7L512.2,165.1L514.1,165.4L514.3,166.6L516.0,166.4L519.5,163.7L523.8,162.9L525.3,161.2L526.7,162.4L527.1,160.9L525.6,154.2L527.3,152.7L527.0,150.6L525.4,149.9L525.1,148.5L525.6,146.9L527.7,146.4L523.2,143.9L521.4,140.5L519.1,141.4L516.7,140.5Z M395.4,219.8L393.6,218.1L391.6,212.9L390.4,213.0L390.4,221.4L389.0,224.5L389.1,226.7L391.9,228.6L396.0,237.1L393.5,242.7L403.8,240.7L415.8,246.7L424.5,247.2L427.2,248.2L430.5,247.2L430.0,245.4L425.2,245.2L422.8,239.4L416.0,237.5L406.5,232.9L402.8,228.5L399.3,221.5L397.4,220.0L395.4,219.8Z M447.0,198.0L446.2,195.0L443.1,196.6L449.2,199.0L447.0,198.0Z M601.1,174.3L594.8,175.9L590.3,179.4L590.9,180.5L600.7,188.3L604.1,188.7L613.1,185.2L613.3,179.8L609.5,176.4L601.1,174.3Z M455.0,189.2L451.8,190.6L447.5,190.2L443.6,188.5L438.8,182.9L437.2,178.0L437.9,173.5L443.9,173.2L446.4,171.5L443.0,168.2L442.3,168.9L438.4,168.5L437.0,165.7L433.7,164.2L433.1,160.9L429.9,156.3L425.5,154.9L426.0,150.5L429.0,144.6L439.5,140.5L452.2,146.5L458.7,148.5L462.0,148.3L467.6,146.0L480.8,137.1L485.7,135.4L482.7,134.9L483.1,132.5L485.1,132.5L485.4,131.6L483.6,130.0L483.7,128.8L486.4,126.0L489.6,124.8L491.0,121.9L493.0,122.2L494.3,120.6L497.4,120.8L501.7,118.8L505.8,119.5L512.9,131.2L516.6,129.4L519.3,130.3L520.0,131.3L518.8,131.8L525.8,131.0L528.9,132.8L536.3,125.0L542.1,122.5L546.7,122.2L547.6,118.8L552.0,114.8L553.9,113.4L557.8,112.9L561.0,115.1L559.9,119.0L563.2,119.9L564.1,121.1L571.2,121.6L572.7,123.3L575.8,120.7L579.7,121.0L581.6,121.7L583.4,124.9L590.5,126.3L599.7,131.2L603.0,129.9L614.2,132.5L624.2,132.1L630.4,133.5L633.4,132.6L636.6,133.2L640.7,136.1L642.2,139.3L643.9,139.1L645.2,142.4L644.7,147.1L648.8,147.4L653.4,145.4L653.7,141.9L656.2,137.4L660.5,135.7L662.2,134.0L662.0,132.7L660.9,132.5L661.0,130.6L662.6,130.3L662.6,127.3L663.5,129.4L663.5,128.0L665.1,128.3L666.3,124.3L667.4,126.8L669.0,126.8L669.9,125.6L668.6,122.3L670.3,122.5L672.4,120.6L675.3,120.2L672.2,115.8L674.7,114.1L676.1,111.2L672.5,108.3L671.0,104.5L673.0,100.3L670.3,99.8L672.8,95.3L670.5,92.6L672.0,89.9L671.7,87.8L672.7,85.2L671.5,84.2L671.5,82.8L672.9,81.4L676.8,82.6L679.7,81.9L683.2,78.5L685.5,77.9L685.4,75.9L687.5,75.2L688.6,72.7L691.3,71.1L697.6,73.5L700.6,70.6L700.7,61.8L699.1,60.5L699.2,55.9L698.1,54.1L698.4,51.2L697.2,47.6L698.2,45.5L697.0,43.6L697.8,38.3L691.3,36.0L687.6,32.0L688.1,31.0L687.3,29.6L685.6,29.9L683.2,27.9L681.6,28.5L678.5,27.5L676.1,25.0L667.9,24.5L663.3,21.1L661.7,22.1L657.5,20.1L653.2,22.3L651.9,24.5L649.2,24.2L647.5,27.1L647.7,30.9L649.0,33.3L650.1,33.3L650.6,35.4L654.6,34.7L654.7,37.1L656.1,38.0L655.5,44.4L658.2,44.4L658.7,46.1L658.9,49.0L657.7,52.2L656.0,53.5L660.0,58.6L656.6,61.3L656.5,64.4L654.4,66.9L654.1,69.0L651.0,69.2L649.7,70.6L644.9,70.0L642.6,70.7L641.6,73.0L639.2,74.0L636.0,73.7L631.0,75.6L629.6,74.8L629.6,72.7L628.0,72.8L625.2,70.4L621.0,73.6L615.2,74.2L614.5,77.3L609.4,74.5L605.4,75.8L600.3,74.1L597.7,79.1L592.3,77.9L588.4,79.3L588.1,80.6L582.3,81.2L579.1,83.5L575.7,83.1L574.2,84.2L569.7,82.9L568.4,78.4L565.0,76.4L564.6,75.0L560.2,73.3L559.7,71.0L557.0,72.0L555.0,71.0L553.1,68.4L545.7,66.8L542.2,65.3L539.6,62.8L535.6,64.9L530.9,63.6L530.5,69.5L529.3,70.4L524.0,65.8L522.5,61.7L517.9,60.6L515.9,61.7L516.1,59.7L515.0,59.4L511.4,60.7L510.1,58.6L509.8,55.4L507.8,54.2L506.7,51.2L506.8,49.2L505.2,46.3L505.9,44.9L503.4,42.7L499.1,44.3L496.3,48.5L491.2,46.4L488.2,49.2L485.8,47.9L482.6,49.9L481.7,48.1L482.3,46.4L479.4,43.8L479.8,42.7L478.4,42.1L475.4,45.3L473.7,45.0L471.2,49.4L470.2,49.2L468.8,46.6L466.6,47.0L463.5,44.9L459.6,48.4L460.9,55.4L458.3,57.4L456.2,56.8L455.6,55.3L451.3,59.0L448.7,57.5L448.5,56.1L446.0,53.5L445.3,56.5L443.7,57.5L435.3,59.1L432.2,64.2L423.4,62.4L419.9,66.8L416.5,66.5L414.4,64.9L411.5,65.1L409.5,63.1L405.6,63.9L401.3,63.0L397.9,63.7L392.3,68.2L390.4,63.8L388.8,63.6L386.6,63.9L382.0,66.9L381.1,71.8L377.0,73.8L370.1,74.2L362.9,72.1L353.8,71.2L344.0,72.0L341.9,71.3L337.9,73.8L336.5,93.4L333.1,96.3L328.6,90.6L327.0,91.5L324.3,97.0L321.5,99.1L319.1,97.3L305.5,98.8L304.1,96.5L299.2,96.8L297.6,98.7L296.7,94.9L294.7,95.3L291.6,93.3L286.5,92.6L282.5,94.1L280.1,97.9L278.2,98.1L274.5,96.3L272.7,94.0L268.6,97.1L264.0,97.8L258.4,102.1L257.3,105.0L258.1,107.5L256.9,108.7L255.5,108.6L255.5,110.1L252.4,112.2L252.0,114.0L247.8,116.6L248.0,120.5L246.4,122.2L250.3,126.4L241.4,131.8L241.2,130.0L238.7,130.5L242.2,136.4L242.2,139.1L241.2,140.3L242.9,141.7L245.0,141.0L247.2,141.9L245.8,145.5L248.7,147.7L249.5,151.2L250.9,151.3L252.1,149.9L254.1,152.1L257.6,153.2L257.2,157.0L255.6,158.1L255.6,163.7L258.3,166.2L258.3,167.2L256.3,168.6L256.6,170.4L259.3,173.2L259.7,177.0L265.0,178.3L269.1,182.1L268.2,182.7L268.6,183.5L273.1,182.8L276.3,184.1L275.1,190.3L278.3,193.2L280.5,192.8L280.9,193.5L278.8,195.3L278.4,197.3L281.5,200.2L283.7,200.0L284.7,201.1L282.2,208.3L277.2,211.1L276.1,212.7L277.2,213.7L283.6,212.9L286.1,213.7L287.2,215.4L285.2,216.2L284.2,218.3L286.1,218.7L286.6,224.5L289.1,223.3L291.5,217.6L293.4,215.7L296.5,214.8L299.5,217.8L298.9,221.2L299.7,219.9L301.2,219.9L300.5,225.1L298.9,228.7L300.2,229.0L301.9,232.2L303.8,230.9L304.8,232.7L306.8,232.0L309.7,234.7L312.3,235.4L313.1,240.8L316.2,243.5L322.7,242.4L325.1,240.4L327.7,241.5L328.6,243.6L330.0,242.1L322.0,235.3L319.9,230.1L319.7,225.0L317.7,219.5L318.5,216.0L321.6,211.6L322.7,203.4L328.5,192.6L325.2,190.6L323.3,182.8L321.4,180.2L322.7,178.6L327.7,179.5L327.6,178.0L328.9,176.8L327.6,174.0L328.4,172.4L330.4,172.0L333.8,175.5L334.6,174.5L334.0,173.1L335.3,174.7L335.4,172.7L336.9,173.8L335.5,171.3L335.9,168.3L339.0,166.9L341.0,167.6L346.4,164.5L346.8,161.9L344.6,160.9L349.9,157.9L355.2,159.9L355.3,164.1L354.1,165.8L358.4,169.4L357.5,171.5L353.3,174.3L349.6,175.3L344.0,174.7L343.0,175.3L342.8,178.2L346.6,179.7L347.5,183.8L349.2,184.7L351.1,188.2L349.9,191.0L355.0,190.3L358.8,192.0L361.4,194.6L362.1,197.3L369.9,200.4L373.8,203.5L387.7,208.0L389.7,210.1L390.4,212.9L391.5,212.8L391.3,211.0L392.9,207.7L397.8,202.7L406.7,205.2L409.4,207.7L415.0,209.4L421.4,209.5L427.2,215.3L429.3,219.3L432.7,222.7L432.8,225.0L434.4,226.0L434.0,229.1L436.4,231.8L437.4,236.4L437.8,234.2L440.8,235.4L442.0,237.5L444.8,238.9L444.7,241.8L446.4,241.6L446.3,240.6L447.1,242.0L446.3,243.4L448.6,244.6L453.5,242.7L450.8,241.5L453.5,240.7L452.9,238.4L456.0,235.9L455.6,232.5L453.2,232.7L452.7,231.9L454.7,229.8L452.1,226.8L452.3,224.6L453.6,223.6L445.7,217.6L437.5,214.9L435.9,213.3L433.0,213.6L431.4,209.1L429.4,208.8L426.6,205.1L425.4,199.7L426.5,196.1L428.5,196.0L429.1,193.6L433.7,195.6L436.1,193.3L440.2,191.5L443.7,192.8L445.1,192.1L447.8,192.8L454.5,198.4L455.5,196.1L454.5,193.2L455.0,189.2Z"/>
<path id="epirus_western_macedonia" d="M246.4,122.2L243.9,122.8L238.8,120.7L237.0,121.2L235.0,123.9L235.5,126.3L232.2,126.4L228.2,130.3L225.7,130.2L221.9,124.8L216.2,125.2L212.5,123.9L206.0,128.8L196.9,131.1L195.3,129.3L192.1,128.1L185.9,131.6L170.7,131.6L171.1,139.3L169.1,141.9L171.0,143.1L171.1,146.1L175.0,149.8L177.9,154.9L176.5,168.2L173.2,169.2L172.5,171.3L169.7,173.1L169.6,177.0L168.0,179.5L165.9,180.2L163.9,178.5L160.6,179.2L157.9,178.0L155.9,182.7L152.6,184.4L152.9,192.5L150.0,195.9L150.4,197.6L147.9,199.0L145.7,202.3L145.2,204.4L146.5,206.0L146.7,209.6L145.0,212.6L142.5,214.2L142.1,216.6L143.9,218.4L142.2,221.7L142.4,224.9L137.0,226.3L135.3,228.1L132.6,228.9L130.3,229.2L126.7,226.8L124.7,229.2L120.9,228.1L117.2,231.0L115.7,237.5L113.8,238.4L108.0,238.1L111.1,243.5L110.4,246.3L114.8,250.7L115.3,253.1L117.8,256.4L117.6,259.7L114.5,263.3L107.7,259.8L105.9,260.9L107.6,263.8L106.2,266.0L108.9,270.2L105.3,272.3L103.7,274.3L103.4,277.1L100.5,275.5L99.2,278.0L100.0,280.0L96.9,280.4L91.5,279.2L85.0,275.0L81.6,273.9L79.6,274.6L81.2,276.3L84.4,275.8L84.9,276.9L88.3,278.3L88.0,278.9L87.0,278.2L88.1,279.6L89.4,278.6L95.8,282.7L96.1,284.9L93.7,287.1L94.9,288.4L94.1,290.8L91.5,294.7L94.5,293.6L97.6,295.6L94.6,295.6L94.9,296.4L100.7,295.6L103.4,296.8L102.9,300.1L100.4,298.8L98.7,299.1L104.7,303.8L104.5,304.6L98.7,304.6L100.7,309.8L103.2,310.6L104.9,312.5L105.7,319.0L111.4,324.3L115.7,324.1L119.3,325.5L120.1,324.5L122.2,326.0L122.5,324.8L123.6,325.3L122.9,326.9L123.6,332.5L128.7,335.7L134.7,343.7L140.8,348.1L145.0,353.0L145.9,357.0L144.4,359.0L146.9,364.7L148.1,365.2L149.8,364.6L149.9,360.6L150.0,362.1L152.6,362.0L155.7,364.1L156.7,363.5L156.5,362.4L148.2,356.9L153.0,351.5L154.5,351.2L156.0,352.3L154.6,351.1L152.4,351.4L152.7,349.6L153.9,349.0L151.2,348.6L152.9,347.6L151.2,346.1L153.2,347.0L153.7,345.8L152.4,345.6L155.0,345.9L153.0,345.3L153.7,344.4L157.7,347.4L155.0,349.5L157.2,349.5L159.7,351.0L159.4,354.5L160.7,354.4L160.2,351.7L162.5,351.7L162.1,349.6L166.0,351.5L167.6,350.4L166.5,352.6L167.2,354.9L169.2,354.1L171.0,356.4L176.4,358.3L177.9,357.8L175.9,356.4L178.2,357.6L179.0,357.1L176.7,355.9L178.3,354.7L177.7,353.9L179.0,353.8L179.6,355.7L180.1,352.2L182.8,353.0L180.7,348.9L182.8,348.2L181.4,346.5L183.7,344.0L189.3,343.4L190.5,342.2L191.5,343.6L194.5,342.7L198.0,344.4L203.0,341.0L202.9,339.2L207.6,337.5L205.7,335.6L205.5,332.8L207.0,330.2L211.2,326.9L212.8,322.8L211.5,322.4L211.5,320.2L209.1,315.7L201.3,315.3L198.1,312.9L198.6,310.8L197.6,308.2L191.5,302.5L190.8,301.1L192.7,300.4L192.8,298.2L189.5,298.1L191.6,295.3L189.9,284.7L189.5,283.9L186.9,283.7L187.1,279.9L184.6,278.0L183.9,276.2L187.5,273.6L188.3,271.5L189.8,272.3L191.6,271.6L194.7,274.2L196.1,274.0L195.7,270.7L193.7,269.8L194.5,266.9L193.8,261.0L196.1,260.6L197.3,255.1L199.9,255.1L202.4,253.0L204.0,257.6L207.0,256.7L208.6,257.5L209.2,256.2L212.1,255.2L212.4,252.7L211.0,252.4L212.7,249.9L217.0,249.2L218.0,250.6L221.7,249.3L224.7,250.9L227.3,250.0L230.7,253.1L233.8,251.9L234.1,253.3L236.2,254.8L238.3,254.6L240.0,252.5L241.7,253.0L242.4,254.7L246.6,255.9L250.7,253.9L258.1,255.9L258.8,253.9L257.0,248.9L257.9,246.4L256.2,244.1L254.4,243.9L253.6,242.1L255.5,242.5L257.5,241.0L258.0,239.2L260.0,239.3L261.6,237.8L262.8,233.5L266.0,231.8L265.8,229.7L268.4,229.3L268.5,227.7L275.9,219.3L274.6,217.2L275.1,216.0L276.0,215.2L277.9,217.0L277.9,215.0L276.3,211.9L282.2,208.3L284.7,201.1L283.7,200.0L281.5,200.2L278.4,197.3L278.8,195.3L280.9,193.5L280.5,192.8L278.3,193.2L275.1,190.3L276.3,184.1L273.1,182.8L268.6,183.5L268.2,182.7L269.1,182.1L265.0,178.3L259.7,177.0L259.3,173.2L256.6,170.4L256.3,168.6L258.3,167.2L258.3,166.2L255.6,163.7L255.6,158.1L257.2,157.0L257.6,153.2L254.1,152.1L252.1,149.9L250.9,151.3L249.5,151.2L248.7,147.7L245.8,145.5L247.2,141.9L245.0,141.0L242.9,141.7L241.2,140.3L242.2,139.1L242.2,136.4L238.7,130.5L241.2,130.0L241.4,131.8L250.3,126.4L246.4,122.2Z"/>
<path id="peloponnisos_w_greece_ionian" d="M225.1,590.4L224.9,589.0L223.1,590.1L224.1,592.8L225.1,590.4Z M358.6,657.8L358.4,654.0L355.4,655.1L353.4,657.5L353.2,659.2L354.0,659.8L357.2,658.0L359.1,660.5L358.6,657.8Z M245.4,631.8L246.5,627.0L244.0,625.1L242.8,629.6L245.4,631.8Z M240.7,622.0L238.4,620.9L237.4,627.2L238.4,627.5L238.2,625.0L240.0,624.0L239.7,622.7L240.7,622.0Z M235.5,607.4L235.8,605.8L234.7,602.8L233.9,602.7L235.5,607.4Z M151.5,497.5L148.3,495.2L146.0,491.8L144.9,486.8L140.0,489.8L137.4,494.1L137.8,500.6L139.6,502.8L142.4,503.4L141.9,506.1L143.8,506.8L143.9,509.0L145.5,511.0L149.8,513.1L154.3,519.2L156.8,520.5L159.3,519.3L157.2,516.1L157.7,514.4L160.2,511.2L163.3,509.9L169.0,511.8L171.6,514.2L171.7,511.0L167.9,508.8L167.0,506.9L163.1,505.1L163.4,501.7L156.1,497.9L152.9,496.8L151.5,497.5Z M371.2,471.3L365.5,472.3L364.0,471.0L362.1,471.8L357.3,469.1L355.4,469.2L346.0,475.2L351.7,476.4L357.9,481.1L356.5,484.2L360.9,488.1L369.8,488.5L373.3,487.8L375.8,484.6L377.1,484.2L376.3,482.2L371.0,480.3L370.2,479.1L370.9,476.9L372.5,476.1L371.1,475.0L371.2,471.3Z M102.2,341.8L99.6,338.9L98.7,340.0L100.8,342.0L102.2,341.8Z M97.9,336.7L94.1,331.1L90.6,329.8L92.1,334.5L95.0,336.6L97.9,336.7Z M66.4,259.5L64.3,258.7L59.6,262.7L55.2,261.6L52.0,262.7L50.0,261.6L48.5,262.1L45.0,267.0L43.9,267.3L46.2,269.2L46.2,272.4L47.2,270.9L48.9,272.0L48.6,276.3L50.6,277.5L53.1,277.3L55.0,283.0L62.7,288.9L64.7,292.5L64.0,294.4L64.7,298.5L66.8,303.7L89.3,314.9L90.2,312.6L85.2,303.4L80.4,306.1L78.9,303.3L75.9,302.8L72.1,299.9L70.2,289.8L70.7,287.5L69.5,285.9L69.8,284.9L70.7,286.9L71.9,286.3L71.9,283.0L64.7,280.1L63.9,278.7L65.2,277.4L63.9,276.6L63.6,274.2L64.2,272.8L72.1,269.4L74.7,264.4L71.2,262.0L70.3,262.8L68.1,261.7L66.4,259.5Z M22.2,254.1L20.7,253.1L20.0,254.4L21.7,257.1L23.4,256.7L25.5,253.7L22.2,254.1Z M39.1,252.2L40.9,251.0L39.1,249.3L39.1,252.2Z M146.0,414.1L146.4,411.3L145.5,410.6L144.4,413.2L146.0,414.1Z M163.5,413.0L166.8,406.2L163.0,410.7L163.0,413.6L163.5,413.0Z M168.4,400.4L162.7,401.9L160.3,407.3L160.5,409.5L162.8,405.8L165.8,405.0L168.1,402.8L168.9,401.3L168.4,400.4Z M152.1,397.3L151.4,398.5L148.2,398.6L147.7,402.3L154.4,407.9L149.7,403.1L150.6,401.2L152.5,401.5L154.5,399.3L154.6,398.6L153.1,398.6L152.1,397.3Z M142.9,378.6L143.6,376.4L141.9,378.9L139.4,378.9L137.2,383.5L134.9,385.7L131.0,397.0L131.1,403.4L129.6,411.4L132.4,408.1L134.6,402.9L135.7,403.3L136.6,406.5L138.1,406.5L138.8,409.3L140.0,405.8L143.0,406.0L143.9,402.0L145.1,403.8L146.5,403.6L145.5,398.1L146.7,397.1L145.7,394.2L145.1,397.3L144.2,397.0L147.4,391.1L146.1,387.3L146.9,381.9L145.3,378.4L142.9,378.6Z M379.0,526.4L374.8,523.2L376.2,521.0L374.4,517.1L376.7,512.3L371.2,510.3L372.3,510.2L371.2,508.0L372.1,506.3L373.9,507.2L376.9,505.0L376.9,501.8L370.8,496.6L366.2,497.6L364.4,496.7L361.0,496.8L359.4,492.6L361.7,490.4L361.1,488.5L356.3,484.2L355.4,485.4L353.2,485.2L350.6,486.6L346.8,485.9L341.3,482.6L339.0,478.5L334.4,474.1L326.5,469.4L317.7,466.0L312.4,462.3L303.1,462.4L299.5,460.5L297.8,457.4L291.6,458.1L286.7,457.0L285.2,454.7L282.8,454.6L280.4,452.5L278.9,448.9L276.9,447.0L273.6,448.1L272.7,446.1L268.9,444.5L268.0,441.4L265.4,441.3L261.4,439.3L256.0,439.8L252.7,438.2L250.1,440.7L245.6,441.8L241.9,446.2L239.9,452.8L235.8,458.2L229.3,461.5L222.3,460.0L215.0,454.7L211.0,455.7L209.1,452.9L207.4,452.5L206.9,464.0L204.6,466.5L201.2,475.2L196.5,481.6L191.1,486.2L188.0,487.1L185.9,485.5L184.6,486.0L182.6,493.0L183.0,497.2L194.6,501.4L200.5,506.3L202.6,513.6L201.2,517.4L201.8,522.1L203.3,518.7L208.0,519.2L222.6,529.9L229.7,538.5L234.6,547.5L237.6,555.9L237.6,561.9L235.5,566.3L233.5,567.1L227.2,573.3L225.7,577.9L226.6,589.5L232.9,596.6L234.4,599.9L234.2,602.6L236.7,601.9L239.1,603.4L239.0,605.6L236.4,609.8L238.7,618.4L239.8,618.3L241.0,620.3L244.2,621.1L248.4,619.4L249.7,619.8L250.4,622.9L253.5,626.0L255.0,629.5L260.0,625.2L260.7,622.2L263.3,620.9L260.6,619.2L259.0,612.6L260.0,598.7L269.7,593.8L274.0,593.4L280.4,594.6L280.9,597.4L279.6,600.8L280.1,603.9L278.3,606.5L282.2,609.6L285.4,608.0L287.6,609.2L290.8,615.4L294.2,618.6L299.1,632.1L302.8,632.6L300.3,635.8L301.0,637.7L302.3,638.3L302.2,639.1L300.4,639.1L301.7,641.6L300.5,643.4L302.6,644.4L301.4,645.8L302.7,646.5L302.2,648.9L303.1,650.4L299.0,652.1L299.0,654.1L301.0,657.9L303.0,659.1L303.9,657.5L305.8,659.6L309.4,660.9L311.8,668.6L313.0,664.6L311.8,663.0L313.5,661.9L313.7,656.8L310.7,652.0L311.6,648.9L311.0,642.1L312.7,641.4L314.2,643.3L316.0,641.7L313.2,636.6L314.3,635.5L316.3,636.3L317.1,638.0L318.1,637.7L317.8,635.2L315.4,634.3L315.2,633.0L316.1,632.3L315.5,630.9L319.9,628.1L319.5,623.0L325.6,619.4L339.9,620.3L343.4,630.6L342.1,635.2L343.3,636.6L344.1,633.4L345.9,633.8L349.2,637.9L348.5,640.9L354.4,646.0L354.5,648.1L357.0,652.2L358.8,653.1L361.7,651.9L363.7,652.4L366.4,654.9L366.0,658.3L368.4,662.1L372.5,663.7L373.8,662.2L379.0,662.3L378.5,660.1L375.8,659.3L375.3,657.1L372.3,655.7L374.0,651.4L372.3,648.5L369.5,647.8L366.5,645.3L363.2,640.4L363.0,635.4L363.8,633.5L365.8,633.0L363.3,632.8L362.8,628.5L364.5,628.4L365.6,626.6L368.3,628.5L368.1,624.9L370.6,623.2L367.3,621.7L368.6,621.8L368.7,618.0L365.4,615.8L361.7,602.9L359.3,599.8L360.8,598.2L360.4,593.8L357.2,588.9L358.8,588.2L358.6,587.3L356.7,586.1L356.0,582.7L353.8,582.8L352.5,584.0L350.6,582.7L350.3,579.3L351.6,574.0L350.3,573.2L348.6,568.5L346.5,566.7L347.4,565.3L345.1,563.9L341.1,554.2L339.0,551.1L337.0,550.4L338.5,546.7L336.9,545.1L336.5,542.2L334.7,539.4L335.7,536.4L333.7,530.7L336.5,527.8L339.6,527.2L343.4,532.5L343.4,534.5L345.9,535.9L350.7,533.9L353.5,535.0L350.7,533.4L353.5,533.6L354.3,535.4L358.4,536.1L360.5,542.6L364.1,540.1L365.5,543.7L371.7,543.8L373.5,547.9L372.4,548.5L370.7,547.0L370.6,549.7L369.5,550.8L366.1,550.6L367.2,553.7L366.3,555.3L370.6,555.5L371.9,556.5L370.9,558.0L372.2,559.6L374.3,558.3L374.8,559.3L373.0,560.1L373.5,561.3L376.6,563.1L377.3,562.0L378.9,562.5L378.8,560.7L377.0,558.7L378.3,556.6L386.1,555.9L385.1,554.8L383.4,555.1L383.7,553.8L381.5,553.5L381.8,551.7L384.7,551.4L383.3,551.2L385.7,548.8L388.1,550.3L391.9,548.0L398.6,549.2L402.2,544.8L402.8,542.2L399.8,541.5L398.2,542.9L394.4,542.1L392.8,542.7L392.2,541.1L389.2,541.2L388.5,538.2L385.9,538.6L385.8,537.6L383.7,537.6L380.8,535.2L376.8,534.8L375.6,532.6L376.3,530.5L377.8,529.6L377.6,527.2L379.0,526.4Z M218.2,439.4L216.9,437.6L217.8,441.8L214.3,439.0L212.1,438.7L211.7,439.4L214.7,440.1L217.8,442.6L218.2,439.4Z M131.7,421.8L129.1,422.4L130.3,432.3L129.3,433.4L128.2,432.2L130.2,435.2L128.7,437.8L123.5,441.6L122.7,439.6L121.6,440.1L120.6,439.3L120.2,435.9L118.4,436.4L117.2,438.4L116.4,435.8L115.1,445.7L112.4,447.4L112.3,451.9L110.6,457.2L114.0,458.9L115.0,460.8L119.9,459.2L120.0,451.6L118.3,446.6L119.0,445.2L120.4,445.0L123.8,454.1L126.6,458.4L125.7,458.8L122.8,455.6L123.9,458.1L123.3,459.5L125.3,462.4L124.6,463.8L126.9,466.3L128.8,466.1L131.9,467.8L132.8,466.0L136.8,464.5L144.7,470.3L148.3,471.0L150.5,470.2L152.8,471.4L155.0,464.4L145.6,451.7L144.0,447.2L141.9,447.3L142.4,445.1L139.6,448.3L138.2,448.4L134.8,442.5L137.6,440.6L137.2,436.5L133.5,423.4L131.7,421.8Z M183.1,440.8L182.3,440.7L182.6,442.4L181.3,442.8L181.7,444.7L183.8,442.1L183.1,440.8Z M141.9,421.9L142.1,419.6L139.8,418.5L139.4,422.6L137.3,421.2L136.5,422.9L138.9,426.4L141.3,435.2L143.1,436.8L143.9,440.7L146.6,442.3L150.4,440.5L148.5,439.2L148.2,437.5L149.0,436.3L148.3,435.2L149.3,434.3L146.0,431.7L146.6,432.6L145.0,432.2L144.6,433.1L146.3,434.9L144.6,433.8L142.1,434.9L145.2,426.3L143.9,423.7L141.8,423.6L141.9,421.9Z M182.4,428.4L180.2,426.5L180.6,429.8L181.9,431.6L182.4,428.4Z M154.5,421.6L155.8,421.3L155.7,418.4L153.5,420.7L154.5,421.6Z M182.8,353.0L187.9,361.0L185.8,363.7L185.6,367.9L188.0,369.9L188.9,374.7L187.9,374.7L186.7,371.5L181.7,369.0L180.2,375.2L174.3,370.9L175.4,369.4L174.8,367.6L172.2,367.8L170.7,365.4L167.2,366.7L165.1,365.2L163.4,368.2L159.5,368.5L161.4,367.7L159.7,363.8L157.5,368.1L154.7,368.5L152.7,367.9L150.5,363.8L150.1,366.8L148.8,368.0L152.3,373.8L153.9,374.5L147.8,376.6L147.3,377.6L148.3,378.4L147.1,383.3L149.2,384.0L150.3,387.4L152.0,388.2L153.2,386.8L154.6,387.2L158.4,383.3L160.5,383.3L162.6,393.6L164.8,398.1L166.3,397.5L167.5,398.4L171.5,398.5L171.7,401.8L174.7,406.2L173.8,414.5L174.9,417.7L176.7,418.4L179.8,414.9L181.6,415.0L180.6,419.3L181.9,420.3L180.0,420.0L179.8,420.7L180.9,421.3L180.4,422.0L182.2,421.1L181.1,422.7L183.0,424.8L183.2,428.3L186.9,429.1L184.1,428.9L184.7,431.2L183.4,434.2L182.5,434.2L181.8,432.7L181.1,435.0L181.9,434.4L182.7,435.7L181.5,437.0L181.8,438.6L184.6,438.2L185.0,440.1L187.5,441.7L187.1,442.5L185.9,441.3L185.8,442.0L187.6,442.8L196.1,442.2L192.5,441.1L193.2,439.8L194.2,440.5L194.6,439.3L197.6,437.9L197.0,435.9L197.7,435.2L199.7,435.5L200.1,433.9L204.7,432.5L204.0,432.1L204.5,427.3L206.1,426.3L204.8,426.2L200.8,421.2L202.5,418.8L206.1,423.4L207.2,430.8L209.8,432.3L211.2,431.4L212.2,433.0L211.2,439.3L212.1,435.1L216.8,434.6L216.0,435.2L216.3,436.4L218.2,436.0L217.3,437.6L218.3,442.8L220.3,442.5L220.4,443.5L222.4,441.0L226.7,439.3L227.8,437.5L230.2,437.7L232.2,436.1L236.4,437.2L238.5,436.7L244.5,439.4L246.9,433.8L250.6,431.6L252.5,433.8L255.4,428.9L255.1,423.0L266.4,417.8L265.4,414.9L265.8,412.1L267.8,408.3L263.3,405.9L264.4,404.3L266.8,403.7L265.1,401.3L264.7,398.4L266.3,397.1L264.7,395.7L265.9,395.2L265.6,393.5L268.8,391.6L265.9,385.8L263.8,386.4L261.3,384.7L261.2,389.6L256.9,391.9L254.7,390.3L250.5,390.3L249.4,395.4L245.4,397.7L244.7,397.8L245.1,394.3L244.1,392.9L236.9,394.4L235.2,392.9L232.8,393.1L226.2,390.3L225.4,384.8L224.0,382.3L226.1,380.5L226.4,376.9L230.7,376.6L230.9,377.8L232.4,374.2L226.5,372.0L220.2,372.0L218.8,365.9L220.5,362.7L207.8,356.5L209.6,352.6L212.0,352.2L211.4,349.4L213.5,345.8L210.9,344.0L209.7,342.0L209.8,338.7L207.6,337.5L202.9,339.2L203.0,341.0L198.0,344.4L194.5,342.7L191.5,343.6L190.5,342.2L189.3,343.4L183.7,344.0L181.4,346.5L182.8,348.2L180.7,348.9L182.8,353.0Z"/>
<path id="egean" d="M736.9,778.9L729.0,780.7L726.4,780.1L721.6,785.7L721.4,788.1L724.3,789.3L728.9,786.5L731.6,783.5L733.9,783.3L736.9,778.9Z M755.6,733.1L753.3,736.1L751.0,736.3L750.6,745.3L747.1,750.0L746.8,754.5L741.4,759.9L742.9,761.9L742.7,763.3L745.2,764.4L746.1,766.0L745.3,769.9L746.7,773.0L743.3,777.7L747.8,779.7L749.1,781.8L748.5,783.0L751.6,779.8L749.7,779.9L751.8,775.6L753.2,775.5L754.3,773.4L757.0,774.3L758.2,771.9L757.4,770.5L754.3,769.6L754.2,767.6L755.8,765.6L754.6,762.8L753.2,762.4L751.8,759.7L749.6,758.2L750.6,753.3L755.8,745.1L755.1,740.0L757.1,736.7L757.3,733.7L755.6,733.1Z M977.1,699.0L980.0,696.5L978.4,695.9L979.2,694.3L976.7,696.1L975.9,698.8L977.1,699.0Z M791.7,684.7L784.1,685.9L784.2,689.5L787.3,688.1L789.6,688.3L790.0,689.1L792.9,688.3L793.8,686.0L791.7,684.7Z M803.3,681.9L803.3,680.6L801.1,680.6L799.7,683.2L801.9,682.1L801.2,684.9L803.3,681.9Z M757.9,731.3L757.1,727.9L758.0,724.9L756.8,724.4L753.5,730.2L755.3,732.3L757.6,732.8L757.9,731.3Z M850.7,661.6L849.9,660.2L846.8,664.5L840.3,664.7L819.6,674.7L814.4,680.8L811.1,682.0L807.5,691.5L799.7,695.4L802.3,697.6L802.1,700.1L805.8,701.2L806.6,702.3L806.3,711.9L803.0,720.0L804.5,723.3L807.7,725.9L805.8,726.8L806.1,727.6L810.1,726.3L812.9,723.4L816.4,721.6L824.9,708.2L832.7,704.5L837.4,707.1L836.3,705.0L837.7,703.9L838.2,701.4L835.6,700.9L836.3,697.3L838.6,692.9L842.3,691.5L845.6,680.9L849.2,675.7L848.7,672.9L852.4,668.5L850.7,666.2L851.9,662.7L851.5,661.2L851.4,662.1L850.7,661.6Z M626.6,672.0L619.8,666.4L616.1,670.8L617.1,672.5L620.1,673.5L624.9,672.3L626.9,673.4L628.3,672.4L626.6,672.0Z M581.2,662.2L580.0,660.0L579.4,660.4L578.5,664.7L580.7,665.6L580.3,663.1L581.2,662.2Z M585.0,665.5L584.1,666.4L584.7,667.6L585.9,667.4L586.4,665.9L585.0,665.5Z M588.0,659.8L587.5,658.4L584.4,657.5L582.5,658.6L582.6,660.2L586.7,660.1L587.6,661.8L586.9,663.6L588.6,667.9L586.7,671.4L583.3,670.8L581.4,672.1L587.3,673.2L589.2,674.9L593.5,671.4L593.5,666.5L588.0,659.8Z M706.7,673.9L705.6,671.7L703.1,672.1L704.3,675.1L705.9,675.3L706.7,673.9Z M770.2,659.7L768.3,657.1L766.8,660.1L763.5,658.7L762.9,664.1L764.7,664.3L765.4,665.5L766.0,664.2L768.7,663.2L769.2,666.0L772.5,669.5L776.6,667.7L777.7,666.3L776.9,665.1L775.6,666.6L773.7,664.7L772.8,665.8L771.8,665.3L772.3,662.9L770.2,659.7Z M477.1,623.8L477.6,620.1L474.8,620.1L475.1,622.2L477.1,623.8Z M497.9,626.9L494.3,624.9L494.2,623.3L492.5,624.6L494.2,629.0L496.5,628.9L498.1,631.1L495.8,633.2L491.2,631.3L491.0,627.8L488.9,628.3L487.2,626.1L486.3,626.8L484.7,632.5L485.2,634.4L483.8,636.3L484.2,638.2L492.7,637.1L495.7,635.4L498.5,636.6L503.9,634.6L505.4,631.6L503.8,627.2L504.7,625.2L501.9,623.9L501.5,625.3L497.9,626.9Z M506.5,614.7L502.8,617.6L502.9,620.3L505.0,623.4L508.2,622.5L510.5,617.0L509.7,616.2L507.7,616.5L506.5,614.7Z M540.1,639.9L534.9,635.8L532.9,636.7L534.6,639.6L537.8,640.4L539.4,643.7L543.0,644.5L543.8,643.3L543.3,641.2L540.1,639.9Z M564.4,632.1L565.0,630.3L563.6,630.0L560.9,630.1L557.2,632.4L553.4,639.3L555.2,639.5L559.7,636.7L564.4,632.1Z M748.7,601.9L746.5,601.8L745.7,602.8L748.0,605.9L751.9,606.1L749.6,604.3L751.4,602.5L748.7,601.9Z M726.9,594.7L724.5,595.3L727.6,596.8L727.7,597.8L728.3,595.9L726.9,594.7Z M686.3,595.3L681.7,595.5L681.5,596.2L682.8,596.9L680.9,597.6L684.9,596.4L688.2,597.0L686.3,595.3Z M547.6,600.3L546.8,599.8L546.0,600.9L547.0,602.7L550.7,601.2L549.5,600.0L547.6,600.3Z M604.0,605.0L606.4,603.8L606.2,602.8L603.9,602.5L603.1,603.9L604.0,605.0Z M554.5,603.9L553.4,600.1L554.7,598.7L555.4,592.7L556.3,591.6L555.1,590.9L549.7,596.1L549.8,599.1L554.5,603.9Z M726.6,588.3L725.1,587.3L724.2,588.0L727.4,590.3L727.3,592.4L729.9,591.7L732.4,594.9L729.8,594.4L728.4,598.4L728.9,600.6L726.9,602.4L728.9,603.0L729.8,605.1L731.7,605.5L734.1,605.5L734.2,602.4L740.4,603.1L738.3,601.6L739.7,600.5L738.1,599.8L740.0,597.4L738.9,595.2L736.2,595.4L734.5,594.1L733.0,592.2L734.8,592.0L731.3,589.3L726.6,588.3Z M670.4,597.9L667.2,598.5L666.9,599.7L668.7,600.2L670.7,598.8L670.4,597.9Z M592.7,616.8L592.2,611.8L586.8,616.4L587.4,617.5L590.2,618.0L592.7,616.8Z M512.3,621.4L510.8,622.3L511.7,625.5L514.4,626.9L516.5,625.7L515.7,622.8L512.3,621.4Z M763.3,609.4L762.3,608.9L761.7,606.5L757.2,609.2L751.0,609.8L742.5,614.3L735.0,623.5L732.0,623.2L728.4,624.6L727.7,626.1L728.4,631.3L730.1,633.5L733.0,635.1L732.4,631.2L734.0,630.0L732.7,627.5L733.7,626.0L739.6,624.0L745.7,625.2L751.5,619.3L768.4,613.4L767.5,609.8L763.3,609.4Z M597.8,611.8L596.7,609.5L594.8,611.9L598.3,614.1L597.8,611.8Z M514.0,591.8L515.6,596.8L517.7,597.5L515.8,599.2L517.8,602.0L517.7,603.9L518.9,604.9L518.5,605.8L519.9,608.4L522.1,605.0L525.5,603.1L525.7,601.9L520.1,594.3L514.0,591.8Z M643.4,604.6L642.2,603.9L638.8,605.3L637.4,607.2L639.3,607.6L639.4,608.4L633.0,612.4L627.1,614.2L626.7,615.9L629.1,616.7L627.4,616.9L627.9,618.2L625.6,619.3L621.2,618.9L618.8,621.3L617.4,620.6L617.9,622.2L620.5,623.9L622.8,624.0L625.4,621.9L629.0,621.6L639.1,611.0L644.3,608.8L649.9,608.9L643.4,604.6Z M611.1,608.8L608.5,607.4L605.1,609.2L604.7,610.7L611.5,611.5L611.1,608.8Z M603.3,606.9L603.7,605.4L599.6,608.4L601.1,608.5L603.3,606.9Z M677.4,638.4L676.7,639.5L677.4,641.9L680.2,641.2L678.2,642.4L679.1,645.4L677.3,644.7L675.7,645.4L675.0,647.0L673.7,647.1L673.3,645.8L669.1,643.7L667.9,645.2L667.7,643.8L666.4,644.8L666.8,648.9L669.1,652.9L671.8,654.4L673.4,653.6L675.7,653.9L673.6,650.6L675.3,650.2L674.9,648.1L675.8,646.5L680.5,646.7L683.5,644.7L684.3,645.7L683.6,646.0L685.7,645.6L684.2,642.9L677.4,638.4Z M751.4,641.4L747.6,642.4L747.2,646.5L748.3,647.6L753.3,648.4L755.5,645.3L753.1,641.3L751.4,641.4Z M811.9,640.8L814.0,638.5L810.2,640.2L810.3,642.1L809.0,642.9L807.7,642.3L807.7,645.1L811.7,644.8L810.1,647.6L812.6,647.0L814.8,648.0L815.0,649.1L813.5,650.6L814.9,651.0L817.7,649.1L816.4,647.6L817.8,646.3L816.1,645.8L817.8,644.7L817.9,641.6L817.2,639.9L814.2,641.7L814.1,641.0L811.9,640.8Z M816.2,635.7L813.7,636.8L813.6,638.1L816.1,638.1L816.8,637.2L815.8,636.7L816.2,635.7Z M748.9,635.6L748.1,634.0L746.8,635.7L745.3,635.8L745.9,638.4L747.2,635.7L748.9,635.6Z M577.0,621.5L573.3,622.2L571.5,629.0L573.4,628.8L573.5,630.5L575.4,630.2L575.4,631.6L581.3,638.6L582.3,636.8L584.0,637.6L583.8,632.2L585.6,630.3L580.3,625.9L578.5,625.5L579.1,624.1L577.0,621.5Z M744.5,564.2L745.1,563.7L743.7,562.6L744.8,561.2L743.9,560.6L743.0,563.6L744.5,564.2Z M695.6,553.5L694.8,551.9L693.3,553.6L691.6,552.2L692.5,557.3L691.4,558.1L691.0,562.4L693.7,562.5L692.5,564.1L694.4,564.9L695.4,563.7L694.3,561.8L695.5,561.2L692.6,558.3L694.3,558.3L694.7,555.8L699.3,556.7L697.3,554.0L695.6,553.5Z M713.4,561.0L710.2,558.3L708.6,559.0L708.8,561.1L713.6,561.9L713.2,563.3L714.9,564.1L715.9,561.2L715.1,560.4L713.4,561.0Z M464.0,520.6L466.8,512.6L468.2,511.7L467.4,507.4L463.8,516.5L464.0,520.6Z M642.4,406.2L636.0,408.2L628.2,409.1L625.8,413.9L628.6,419.4L636.2,423.6L637.6,425.7L637.3,428.4L638.3,430.5L640.6,431.7L641.3,436.7L639.2,439.0L637.9,443.3L635.1,442.6L634.9,444.3L634.0,442.7L630.0,446.3L628.9,449.4L630.8,449.3L631.3,452.2L633.6,452.0L634.4,454.9L636.8,455.4L638.9,458.4L642.7,460.6L645.1,454.8L651.0,453.4L652.5,450.7L651.3,449.2L651.3,446.0L656.5,441.5L656.3,439.0L655.0,437.8L654.2,430.3L656.0,423.0L654.8,423.1L655.1,421.5L653.2,421.4L656.0,419.1L655.8,416.0L656.8,414.3L656.5,412.5L654.6,410.9L653.6,413.0L652.6,412.1L652.4,413.9L651.5,412.0L649.7,412.0L647.6,407.4L645.6,408.1L642.4,406.2Z M659.5,413.7L658.8,413.4L661.2,416.8L665.1,418.2L667.0,416.9L666.9,416.0L659.5,413.7Z M596.5,414.9L597.4,412.7L595.7,412.4L594.5,414.6L596.5,414.9Z M601.4,405.6L599.9,407.1L597.8,407.0L600.9,411.1L600.4,413.9L601.3,413.4L605.0,414.7L606.0,408.0L603.4,405.9L601.4,405.6Z M684.6,528.0L683.9,526.2L682.6,525.7L679.2,528.5L682.6,528.6L683.8,530.3L684.6,528.0Z M691.2,522.9L691.8,521.1L689.5,519.3L688.3,522.4L690.0,523.3L690.1,526.3L688.2,528.1L687.0,525.3L686.0,525.7L686.7,530.9L689.5,534.5L689.9,532.2L688.4,528.9L691.6,526.1L692.2,523.0L691.2,522.9Z M550.6,517.0L548.3,516.8L547.7,518.2L546.2,516.7L545.4,518.6L553.2,526.3L557.4,528.5L557.9,531.4L561.2,531.8L565.6,534.9L569.5,533.6L569.6,531.1L571.6,527.5L571.4,524.7L565.6,521.3L561.8,520.9L561.4,522.2L558.5,519.6L553.1,520.0L553.0,517.2L550.6,517.0Z M490.8,517.5L486.8,515.9L483.4,518.2L484.7,518.2L481.6,519.1L479.1,525.2L478.9,527.9L480.2,529.1L479.9,535.2L482.3,534.3L490.4,525.0L492.5,519.8L490.8,517.5Z M523.7,522.3L520.5,522.4L518.2,525.2L515.0,525.3L523.8,527.0L523.1,525.8L523.7,522.3Z M712.2,500.8L705.0,502.7L702.0,505.4L697.6,506.8L695.0,510.1L697.0,516.9L699.8,515.9L701.8,513.8L709.4,513.0L712.2,514.6L716.1,520.9L723.1,521.6L724.3,520.7L724.9,517.7L727.0,516.2L731.6,515.2L733.9,513.3L741.4,513.0L742.0,512.1L741.4,510.7L738.9,510.7L739.4,509.7L737.9,507.2L741.6,504.7L735.4,504.9L734.3,504.1L734.6,502.7L733.6,503.1L733.7,504.7L731.1,503.7L730.6,504.2L733.3,507.6L732.2,508.5L728.2,505.4L724.4,504.8L721.2,501.5L712.2,500.8Z M532.5,487.4L531.6,485.8L532.1,483.3L528.6,482.1L528.0,478.5L523.4,479.7L519.0,482.5L518.3,484.5L518.8,487.3L517.8,487.4L519.0,488.0L520.6,491.4L520.6,493.8L522.7,491.8L525.9,493.3L529.0,499.4L531.5,500.7L531.4,502.6L533.1,503.0L535.6,506.2L537.2,506.2L541.1,514.1L544.1,516.2L543.7,513.7L547.9,505.9L543.3,505.7L546.0,500.7L543.4,497.6L541.7,497.1L543.8,493.6L543.6,490.8L536.2,490.2L533.1,489.1L532.5,487.4Z M674.6,312.6L673.7,311.4L671.2,313.2L662.9,312.2L658.7,313.0L657.4,313.9L657.6,316.6L658.7,317.8L657.6,319.3L652.4,321.6L651.0,320.7L648.5,322.8L642.5,323.7L641.6,324.8L639.6,324.9L638.8,324.0L637.0,325.3L634.5,324.7L634.2,323.0L633.4,323.2L630.3,325.2L628.4,328.0L628.6,329.4L627.1,330.9L628.2,331.9L627.9,336.6L625.9,335.6L626.0,336.3L631.6,341.5L635.5,342.6L637.3,345.9L641.0,345.5L648.1,348.0L649.5,347.8L650.8,345.1L652.2,346.0L653.2,341.9L656.2,339.4L656.3,336.5L657.3,334.9L661.0,333.6L667.6,334.6L669.4,336.6L668.1,339.7L665.2,340.4L662.5,342.8L659.3,343.4L656.8,346.9L654.2,348.2L652.0,347.4L649.6,349.8L652.2,350.4L657.6,357.5L660.1,356.3L663.8,356.7L668.5,358.5L672.3,361.4L675.9,361.5L679.5,362.9L687.6,361.4L690.2,362.1L692.5,359.9L691.5,356.1L687.7,351.3L683.9,348.7L683.3,345.7L687.4,344.2L691.3,348.7L691.4,350.5L689.6,352.6L691.5,353.2L690.7,354.2L692.3,357.2L694.6,356.3L698.6,357.5L699.4,355.7L698.9,353.0L693.9,347.0L694.8,345.1L693.7,344.9L692.8,342.4L691.3,341.5L692.1,338.1L688.5,336.7L686.2,331.5L677.5,326.1L677.3,324.4L681.5,318.2L674.9,316.4L674.5,315.5L676.1,312.8L674.6,312.6Z M546.7,302.4L553.2,294.3L548.1,290.4L545.1,296.9L545.4,300.2L546.7,302.4Z M588.8,236.4L589.7,232.6L585.4,236.4L582.8,234.5L582.1,235.2L582.6,236.9L579.9,239.5L580.3,241.3L577.5,241.2L575.1,244.4L574.0,244.1L574.4,242.5L572.6,240.9L573.4,238.6L571.0,238.3L569.8,236.3L562.3,238.4L561.0,236.1L556.6,238.2L551.4,238.4L552.4,240.3L552.2,245.1L554.7,247.1L552.6,254.1L554.1,254.9L552.2,257.5L554.5,256.5L556.2,256.9L558.9,255.2L560.6,257.3L563.7,254.8L564.3,255.2L563.0,255.9L561.5,260.2L563.2,261.6L569.0,261.9L567.0,257.1L564.7,255.5L566.8,252.1L569.5,251.8L565.7,251.2L569.3,248.4L571.8,247.8L573.9,250.1L572.4,252.0L573.1,253.4L569.9,255.4L575.4,258.7L575.2,260.8L576.3,262.3L581.1,263.6L580.7,261.5L582.7,260.2L580.2,257.0L579.9,255.3L581.2,254.4L579.8,251.9L582.5,250.6L581.5,250.5L581.1,248.8L583.6,247.4L584.3,243.8L586.7,240.8L589.2,239.6L588.8,236.4Z M711.3,551.3L709.0,548.1L708.3,549.4L711.7,553.5L712.7,552.4L711.3,551.3Z M494.5,545.0L494.8,539.8L491.6,542.2L488.2,547.1L488.8,548.3L490.8,548.1L491.5,553.6L489.5,555.4L488.2,561.4L490.9,560.8L495.4,555.8L497.0,552.2L496.7,550.4L499.4,550.1L497.9,546.4L494.5,545.0Z M573.0,552.8L573.9,550.8L573.1,548.2L573.0,552.8Z M569.4,546.4L568.6,544.9L568.2,546.6L566.5,545.8L567.8,548.8L569.7,549.9L568.4,553.1L570.2,551.7L571.7,552.2L571.9,549.9L570.5,550.5L569.7,549.7L570.3,547.5L569.4,546.4Z M542.8,544.1L542.6,539.3L541.3,537.7L536.8,536.1L536.8,537.9L538.6,538.8L538.4,542.9L534.4,548.8L534.9,550.2L536.5,549.8L537.0,550.6L536.2,554.0L542.5,550.8L543.0,551.6L545.3,549.5L543.4,545.9L541.8,545.9L542.8,544.1Z M581.6,538.4L580.2,537.8L576.8,539.8L578.7,543.2L578.2,545.4L576.5,545.0L576.2,545.7L577.2,547.4L576.5,549.3L578.1,546.9L579.2,548.5L579.5,547.8L582.1,548.6L584.2,547.0L585.3,548.0L585.9,545.7L590.9,544.3L591.1,540.8L588.5,541.2L588.2,539.9L586.7,539.9L584.8,538.2L583.4,538.8L583.8,541.5L582.9,542.1L581.6,538.4Z M734.2,541.1L728.5,540.7L731.0,544.4L732.2,542.9L733.4,544.4L734.6,542.7L736.1,543.2L734.2,541.1Z M675.6,515.8L669.6,516.4L660.5,522.7L655.1,521.6L648.8,522.0L642.1,529.4L639.3,535.8L640.7,536.8L643.4,535.8L647.1,536.0L651.8,531.4L662.6,529.3L669.2,524.7L675.6,515.8Z M569.5,579.1L562.8,582.4L560.2,585.5L562.4,586.3L557.9,589.3L557.1,594.7L558.8,597.6L560.2,597.0L561.3,598.4L564.8,599.7L571.4,594.9L573.9,589.6L571.8,587.3L573.1,585.8L573.9,581.2L575.3,579.8L572.6,578.9L572.0,580.2L573.1,580.4L572.7,581.6L569.0,582.7L567.7,581.7L569.1,579.5L569.8,580.1L569.5,579.1Z M603.1,580.5L601.9,577.5L597.8,572.8L593.7,575.0L590.3,579.8L586.4,581.0L583.2,584.1L582.2,586.6L579.9,586.1L579.6,587.3L583.3,592.1L582.5,593.9L584.5,597.4L583.9,599.5L587.7,600.8L587.4,604.2L588.6,606.1L590.1,606.2L595.2,602.4L598.7,602.2L599.9,600.8L602.1,594.1L602.7,587.9L604.6,586.8L603.3,586.3L604.0,583.9L603.1,580.5Z M717.7,573.3L716.2,573.1L717.5,574.2L716.8,574.7L714.9,573.7L713.6,576.4L716.6,578.9L719.3,578.8L717.5,581.2L718.9,583.5L722.2,581.4L721.6,583.1L719.6,583.7L720.6,585.0L723.7,585.2L723.3,583.9L724.9,584.5L725.2,583.2L722.3,579.7L723.5,578.3L720.1,577.8L721.6,576.6L721.8,574.9L718.2,574.3L717.7,573.3Z M500.8,572.5L500.0,572.1L498.4,573.7L495.8,574.1L494.3,576.9L494.9,577.7L493.6,577.7L494.4,580.3L493.0,580.9L492.8,582.4L497.2,580.5L496.9,582.2L500.2,582.1L499.4,583.7L501.1,583.7L502.4,582.7L502.5,579.6L504.1,581.4L504.0,578.8L503.1,577.8L504.0,574.0L500.8,572.5Z M625.6,581.8L625.7,580.7L622.5,583.3L620.9,582.2L621.8,584.8L625.7,586.1L626.3,584.4L624.6,582.0L625.6,581.8Z"/>
<path id="thessalia_central_greece" d="M480.2,480.6L480.5,478.2L478.1,475.6L475.4,480.3L477.1,481.4L480.2,480.6Z M480.8,474.0L480.1,476.3L481.5,477.2L481.7,474.4L480.8,474.0Z M512.9,387.9L510.6,386.9L509.8,388.3L512.5,389.1L512.9,387.9Z M487.7,379.3L489.0,377.9L487.1,376.7L486.2,378.7L487.7,379.3Z M500.1,382.9L501.5,378.1L498.9,381.7L500.1,382.9Z M508.1,372.6L507.5,369.6L508.5,367.6L499.6,360.9L497.1,363.1L496.2,365.3L498.0,368.7L494.4,373.2L497.1,373.0L497.7,374.6L498.8,373.8L499.6,376.2L501.8,375.8L501.5,377.6L504.1,376.7L504.9,378.5L506.1,377.5L507.2,378.0L507.3,381.8L503.8,383.2L503.9,384.5L507.5,387.5L507.4,384.7L509.6,383.9L512.2,387.1L513.4,385.8L515.0,386.7L518.0,385.6L517.9,381.9L516.5,379.8L510.7,376.0L509.9,374.5L507.5,374.0L508.1,372.6Z M460.3,317.2L461.2,315.2L460.8,313.9L458.3,317.2L457.9,319.6L460.2,320.4L458.5,321.8L460.4,323.1L462.9,321.0L463.3,316.3L461.5,315.6L460.3,317.2Z M485.2,314.0L484.2,314.3L483.7,318.3L484.6,318.1L485.2,314.0Z M469.2,314.4L471.4,310.5L470.5,306.4L468.7,312.3L466.8,313.8L469.2,314.4Z M425.0,437.9L423.8,438.0L420.8,435.6L419.4,433.5L419.3,429.7L416.2,428.5L416.3,425.7L413.7,425.2L414.2,423.2L415.5,423.3L415.4,421.7L411.9,417.9L410.9,417.5L408.3,421.2L405.0,420.4L403.7,418.8L398.8,418.9L398.1,417.6L394.7,417.5L391.3,419.0L390.9,418.1L392.1,416.5L395.6,415.5L393.5,414.3L391.6,414.7L389.8,410.4L387.1,411.3L389.0,408.1L392.1,406.2L390.3,402.2L387.0,400.8L384.1,401.5L377.9,397.3L375.8,398.0L378.2,399.9L378.0,400.8L373.6,401.2L370.3,403.8L369.8,402.8L371.8,401.4L369.8,401.0L370.3,402.2L369.5,402.7L368.2,401.8L368.2,400.4L369.3,401.4L366.4,397.3L366.2,392.0L363.4,388.0L357.1,389.3L351.1,385.6L347.6,388.2L343.7,384.2L338.3,385.1L332.9,379.2L331.8,376.4L328.2,378.8L325.6,378.2L323.2,380.2L322.2,377.6L321.5,379.6L320.5,379.8L319.8,378.1L318.4,378.7L318.2,377.5L320.7,374.7L315.9,375.6L318.7,373.9L317.7,372.9L323.6,369.3L327.1,370.2L329.5,372.8L331.6,373.4L333.0,372.1L336.7,374.3L344.4,372.0L345.2,371.2L345.0,369.4L346.7,367.4L352.0,368.2L354.6,367.3L354.2,365.3L357.7,364.3L359.3,365.3L362.7,356.7L365.9,355.8L366.2,354.0L363.6,354.1L356.6,357.7L356.6,354.6L359.4,354.2L359.8,350.4L358.0,347.9L358.3,346.4L354.2,343.1L354.7,344.9L352.9,344.9L351.5,338.9L349.7,338.1L349.9,335.7L348.1,336.4L348.7,338.2L347.5,340.0L346.1,339.9L343.6,333.6L342.8,328.7L343.4,325.2L355.0,322.3L353.2,319.9L354.9,317.1L353.5,316.4L353.8,315.0L357.4,316.5L359.6,316.2L362.1,320.3L371.6,321.7L375.5,325.6L377.2,328.5L376.9,330.3L378.2,333.7L380.6,335.8L380.1,340.8L376.9,339.8L376.8,343.2L374.3,342.6L374.8,344.2L373.5,343.9L370.3,346.5L369.2,346.1L371.1,343.0L370.2,340.1L366.7,341.7L364.9,347.0L367.0,348.3L371.7,348.4L372.5,347.2L380.7,345.6L381.3,345.1L379.5,344.4L380.1,343.3L383.5,343.3L385.8,341.6L388.4,341.7L390.6,340.2L393.1,336.1L390.0,328.9L386.7,325.3L385.9,320.5L379.6,314.5L378.3,310.8L371.0,302.6L369.2,298.1L364.7,294.6L362.0,294.5L360.7,292.0L358.5,291.7L353.4,287.8L351.2,282.8L346.3,261.7L335.5,253.1L333.3,248.1L333.6,244.6L332.5,242.5L328.5,240.0L330.0,242.1L328.6,243.6L327.7,241.5L325.1,240.4L321.0,242.9L316.2,243.5L313.9,242.2L313.1,238.2L312.1,237.5L312.9,236.1L312.3,235.4L309.7,234.7L306.8,232.0L304.8,232.7L303.8,230.9L301.9,232.2L300.2,229.0L298.9,228.7L301.2,220.5L299.7,219.9L298.9,221.2L299.5,217.8L298.3,216.4L296.2,214.7L293.4,215.7L291.5,217.6L289.1,223.3L286.6,224.5L286.1,218.7L284.2,218.3L285.2,216.2L287.2,215.4L286.1,213.7L283.6,212.9L277.2,213.7L277.9,217.0L276.0,215.2L275.1,216.0L274.6,217.2L275.9,219.3L268.5,227.7L268.4,229.3L265.8,229.7L266.0,231.8L262.8,233.5L261.6,237.8L260.0,239.3L258.0,239.2L257.5,241.0L255.5,242.5L253.6,242.1L254.4,243.9L256.2,244.1L257.9,246.4L257.0,248.9L258.8,253.9L258.1,255.9L250.7,253.9L246.6,255.9L242.4,254.7L241.7,253.0L240.0,252.5L238.3,254.6L236.2,254.8L234.1,253.3L233.8,251.9L230.7,253.1L227.3,250.0L224.7,250.9L221.7,249.3L218.0,250.6L217.0,249.2L212.7,249.9L211.0,252.4L212.4,252.7L212.1,255.2L209.2,256.2L208.6,257.5L207.0,256.7L204.0,257.6L202.4,253.0L199.9,255.1L197.3,255.1L196.1,260.6L193.8,261.0L194.5,266.9L193.7,269.8L195.7,270.7L196.1,274.0L194.7,274.2L191.6,271.6L189.8,272.3L188.3,271.5L187.5,273.6L183.9,276.2L184.6,278.0L187.1,279.9L186.9,283.7L189.5,283.9L189.9,284.7L191.6,295.3L189.5,298.1L192.8,298.2L192.7,300.4L190.8,301.1L191.5,302.5L197.6,308.2L198.6,310.8L198.1,312.9L201.3,315.3L209.1,315.7L211.5,320.2L211.5,322.4L212.8,322.8L211.2,326.9L207.0,330.2L205.5,332.8L205.7,335.6L208.2,338.4L209.8,338.7L209.7,342.0L213.5,345.8L211.4,349.4L212.0,352.2L209.6,352.6L207.8,356.5L220.5,362.7L218.8,365.9L220.2,372.0L226.5,372.0L232.4,374.2L230.9,377.8L230.7,376.6L226.4,376.9L226.1,380.5L224.0,382.3L225.4,384.8L226.2,390.3L228.4,391.7L232.8,393.1L235.2,392.9L236.9,394.4L244.1,392.9L245.1,394.3L244.7,397.8L248.2,396.8L249.4,395.4L250.5,390.3L254.7,390.3L256.9,391.9L261.2,389.6L261.3,384.7L263.8,386.4L265.9,385.8L268.6,390.0L268.8,391.6L265.6,393.5L265.9,395.2L264.7,395.7L266.3,397.1L264.7,398.4L265.1,401.3L266.8,403.7L264.4,404.3L263.3,405.9L267.8,408.3L265.8,412.1L265.4,414.9L266.4,417.8L255.1,423.0L255.4,428.9L252.5,433.8L256.6,434.2L260.0,430.4L262.1,430.1L266.8,432.0L271.2,431.3L274.2,433.7L278.3,434.8L279.7,437.4L281.2,436.9L283.6,440.2L284.6,438.1L289.8,435.2L293.2,438.1L294.5,436.1L296.7,437.4L299.9,436.8L300.0,438.3L301.9,438.8L303.5,436.9L302.4,435.3L304.2,435.1L303.7,433.2L301.4,431.8L303.3,429.6L305.5,429.3L303.9,425.6L305.6,425.5L305.7,426.9L309.1,427.4L316.8,437.3L316.9,438.4L315.1,439.3L318.5,444.8L321.2,445.1L323.0,440.8L321.4,439.5L322.1,436.9L324.4,435.0L326.0,436.8L327.2,434.7L325.3,433.7L328.0,432.4L330.6,435.0L330.9,436.9L329.9,437.9L331.3,440.5L341.2,445.7L338.0,449.6L341.9,451.6L347.1,450.7L349.1,452.0L350.1,450.2L351.4,456.7L352.3,455.6L355.1,456.7L357.3,455.9L355.0,453.7L352.8,454.6L353.9,452.4L356.5,453.3L362.5,453.0L365.0,455.4L363.1,456.8L366.5,458.2L370.6,453.8L373.6,456.7L372.0,458.4L381.0,455.9L387.1,456.5L387.6,450.0L390.6,447.2L394.0,447.5L396.1,446.4L397.3,446.7L397.2,448.2L396.9,450.3L394.9,451.3L395.3,453.1L398.5,454.0L403.4,453.6L403.5,458.9L407.8,460.1L408.6,462.4L412.5,462.0L414.6,459.8L419.5,457.7L418.8,456.2L420.2,454.5L419.6,453.5L420.3,451.5L419.5,449.9L419.8,445.9L421.1,443.1L422.6,442.7L422.5,440.2L424.4,439.8L425.0,437.9Z M388.0,353.9L381.9,355.9L379.3,358.1L372.3,357.7L369.1,360.8L367.9,365.7L364.8,365.4L361.0,369.5L354.8,371.0L346.3,374.6L344.6,376.9L344.3,379.6L349.5,378.0L356.4,378.4L358.7,377.0L359.5,375.8L358.9,374.4L355.4,373.4L356.9,371.8L359.3,372.9L363.3,372.8L364.1,375.6L367.9,378.1L372.8,376.4L378.6,378.5L386.7,386.7L388.4,386.3L390.4,387.3L396.4,395.0L400.5,396.8L402.3,400.8L406.4,403.1L408.2,408.3L409.8,409.4L412.5,408.8L413.7,410.0L416.6,410.3L419.0,413.7L419.8,417.4L418.7,421.7L416.0,422.5L415.4,424.8L417.2,424.2L418.4,425.0L418.5,427.3L420.9,430.8L425.1,429.2L435.1,432.0L437.2,430.2L439.2,430.3L444.5,432.6L450.3,432.3L453.8,430.4L455.6,432.0L458.6,431.3L459.6,437.8L456.5,438.3L456.1,439.3L464.1,440.8L464.2,442.6L465.4,442.4L462.9,445.1L464.6,448.3L467.0,444.9L468.4,445.2L468.9,446.6L465.1,452.1L465.8,453.2L469.1,451.3L471.4,452.8L473.7,459.4L470.8,463.5L473.9,463.7L473.6,467.9L477.1,467.0L480.5,468.4L480.9,470.4L482.8,470.2L484.2,473.0L482.6,474.6L483.2,476.4L485.2,477.0L485.6,479.4L489.9,483.2L491.8,481.1L490.2,480.3L490.9,477.7L492.9,476.9L496.7,478.3L498.2,480.7L498.3,483.4L500.9,484.5L506.3,481.0L508.5,475.7L509.2,470.5L507.9,465.7L509.5,459.9L506.0,461.7L494.7,461.3L490.8,458.7L486.8,460.0L484.8,458.4L484.8,456.2L483.3,456.7L479.6,454.9L477.3,450.9L477.9,444.1L473.2,438.1L474.2,436.7L473.9,433.2L471.1,431.4L471.6,429.7L473.5,429.4L471.3,427.3L471.5,420.7L475.6,415.6L465.5,407.2L465.4,403.3L468.6,400.6L458.4,396.3L456.8,397.3L452.1,397.6L449.4,399.5L443.9,397.4L440.8,398.2L436.2,395.4L431.0,393.9L430.5,391.6L426.3,386.5L424.2,388.4L419.3,388.2L417.2,386.5L415.9,387.0L415.4,384.5L409.1,381.8L408.3,380.0L403.2,377.1L400.2,370.0L400.5,364.2L396.4,363.3L395.1,360.7L395.5,357.7L392.1,356.8L390.1,354.1L388.0,353.9Z M464.8,351.6L465.9,350.7L464.9,349.0L464.8,346.0L463.4,347.5L464.1,350.2L463.5,351.8L464.8,351.6Z M424.0,339.4L420.4,337.2L419.7,335.4L417.8,334.7L417.5,333.2L415.7,333.6L415.6,335.0L419.1,341.0L421.6,343.8L422.2,348.0L425.7,348.0L426.8,349.7L428.2,350.1L432.1,347.9L434.6,343.7L431.0,342.7L428.9,344.2L427.9,340.8L424.0,339.4Z M408.4,338.0L407.8,335.8L403.5,333.1L401.7,334.9L401.8,336.7L396.5,339.6L397.0,340.9L398.2,340.6L399.8,341.9L401.8,341.5L402.2,342.9L403.4,343.1L403.3,341.5L404.9,339.2L407.4,339.3L408.4,338.0Z M451.4,329.6L450.7,332.3L452.0,335.0L448.2,336.7L449.4,338.4L452.0,338.7L453.1,333.4L452.1,332.9L451.4,329.6Z M443.3,339.3L446.5,337.2L447.7,333.5L452.4,326.5L450.0,325.3L449.6,323.4L446.1,328.4L445.8,330.5L442.4,333.8L442.7,337.2L437.9,340.9L440.8,342.3L443.3,339.3Z"/>
</g>
</svg>
